<svg id="Layer_5" data-name="Layer 5" xmlns="http://www.w3.org/2000/svg" viewBox="0 0 800 800"><defs><style>.cls-1{fill:none;stroke:#000;stroke-miterlimit:10;}</style></defs><title>schematic</title><path class="cls-1" d="M551.57,159.42l2.65,2.44c1.66-3.6.75-6.8-.94-10.26,6.83,4.43,6.17,16.48-.78,21.18-2.11,1.43-4.23,2.89-6.89,3.21a6.57,6.57,0,0,0-4.6,2.79c-2.06,2.69-5.38,3.07-8.37,3.56-4.38.72-5.39,3.42-5.4,7.24,0,2.83.2,5.63-.64,8.48-1.46,5-5.21,7.08-9.75,4.27-2.63-1.63-4.31-1.14-6.34.41-2.37,6-8.77,4.93-13.2,7.44,3.1,0.68,5.84-.38,8.58-1.23,3-.94,4.83-2.88,4.63-6.25a3.43,3.43,0,0,1,1.14,3c-0.1,8.74-.11,17.47-0.28,26.21-0.05,2.86-2.12,4.61-4.23,6.14a21.54,21.54,0,0,1-3.07,1.27c-2.39,1.19-6.09.07-7.31,2.44-1.07,2.09-.27,5.13-0.31,7.76q-1.18,71.58-2.37,143.16c-0.07,4.37,0,4.5,4.07,2.88,3.06-1.21,5.74-1.58,8.82.27s6.59,2.89,9.85,4.4a6.12,6.12,0,0,0,4.67.09c5.53-1.72,7.88-1.11,11,3.69,1.62,2.54,3.11,3,5.7,1.65,1.87-1,5.11-.85,5.78-2.19,1.63-3.28,3.79-.63,5.66-1a10,10,0,0,1-1.74.95c-0.6.19-1.44,0.27-1.1,1a0.92,0.92,0,0,0,1.73,0c0.86-1.47,1.77-.87,2.21.07,0.58,1.23-.45,1.56-1.5,1.92-4,1.34-7.86,2.85-11.81,4.2a2.46,2.46,0,0,0-2,2.64c-0.28,5.3-1.46,6.8-6.41,8.21-2.29.65-3.41,1.81-3.12,4.22a16.24,16.24,0,0,1,0,1.87c0,7.68.09,6.87-6.86,9.26a15.62,15.62,0,0,0-2.09.75c-0.44.22-1.36,0.41-.64,1.27a0.89,0.89,0,0,0,1.27.35,7.65,7.65,0,0,1,2.2-1.32c4-1.25,6.11,0,7.75,3.86,2,4.59,1.49,8.9.53,13.61s-0.74,9.42-.89,14.15c-0.19,6.41-3.31,11.17-8.4,14.61-2.74,1.85-5.69,2-9.13.54-4.53-1.94-8.81-5.1-14.31-4.27-2,.3-2.77.74-2.78,2.85,0,5.49-.37,11-0.45,16.47-0.32,21.74-.53,43.48-1,65.21-0.06,2.81,1,4,3.38,3.94,9.7,0,17,5.84,25.27,10.27L497,586.22c4.77,0.92,22.77-5.18,24-7.88a14.25,14.25,0,0,1,.85,6.76c-0.4,3.78-.18,7.07,4.34,8.16,0,2.15,1.93,3.53,2.2,6.73,0.89-2.74,2.62-3,4-3.77,3.66,0.78,7.18,1.83,9,5.55,0.83,1.72,3,1.37,3.94,2.88-1.12.68-2.89-1.17-3.63,0.94-3.34-1.4-6.51-.28-10.32.21l2.92,2.69a26.19,26.19,0,0,1-10.13-4.95c1.28-.22,1.69-1,1.06-2.08a6.7,6.7,0,0,0-5.46-3.2c-1-.09-3-0.15-2.4,2.09-2.7,1.14-.68,1.72.32,2.21,4.63,2.23,9.32,4.35,13.95,6.6,1.21,0.59,2.06.72,2.55-.76,2.26,0,3.82,1.56,5.69,2.44,2,1,2.43,1.83.23,3.29-2.95,1.95.16,4.15,0.13,6.26,0,1.22,1.14,2,2.67,2,3.93-.18,5.42-2.07,4.65-6-0.25-1.29-.86-2.6-0.17-3.94,1.91,1.17,1.14,3.82,2.65,5.35,1.18-1.32,1.07-2.72,1.16-4.07,0.26-3.8-2.43-6-4.58-8.51,5.12,2.06,7.25,6.3,7.52,11.36,0.31,5.78-2.07,10.73-7.41,13.2-8.83,4.09-17.1,9.59-26.91,11.39-1.69.31-3.13,0.66-5-.13-3.22-1.36-6.15,1.21-9.28,1.71-1,.16-1.94,1.18-3.12.36a0.94,0.94,0,0,0-1.62.7c-0.7,4.77-4.4,5.79-8.17,6.12-2.79.24-3,1.47-3,3.76,0.05,4.74-.25,9.49-0.27,14.24a2.93,2.93,0,0,1-2.38,3.22q-21.17,6.37-42.32,12.82l-43.44,13.12c-2.61.79-5.43,1.2-7.78,2.48-9.37,5.11-16.91-.61-24.88-3.85q-4.46-1.82-8.86-3.8c-1.4-.64-2.62,0-4,0.13-6.85.82-12,5.7-18.54,7.37-7.26,1.85-14.68,3-22,4.48-6.66,1.36-12.87,4.24-19.53,5-6.12.71-12.44,2.55-18.37,1.72-9-1.27-18.16-3.07-26.41-7.57-2.6-1.42-5.1-2.92-5.92-5.86-0.65-2.32-1.93-2.44-3.48-1.47-2.71,1.69-5.17,1-7.78-.17-3.75-1.69-7.55-3.25-11.36-4.8a8.67,8.67,0,0,1-3.65-2.54c-3.14-4-6.91-6.25-12.21-5.09-1.53.33-2.88-.64-4.24-1.21-3.45-1.44-6.79-3.19-10.32-4.41a11.58,11.58,0,0,1-7.32-6.92c-0.33-.82-0.35-2-1.57-1.28-5.2,3.09-9.61.06-14.08-1.83s-9.38-3.05-12.43-7.75c-1.14-1.76-4.32-3-6.72-2.76-7.78.8-13.64-4-20.23-6.54-4.29-1.64-5.58-6.1-5.58-10.26,0-4.51.79-9.08,4-13.27,0.29,3-1.6,4.87-2.11,7.16-1.68,7.46,1.16,11.84,8.7,13,2,0.3,1.58-1.12,1.65-2.12,0.21-3.14.7-6.38,2.41-8.9,1.59-2.35,2.52-5.06,4.56-7.19s5.14-3,7.52-4.89c1.94-1.53,4,.81,6,1.51,4.25,1.54,4.38,1.65,9-.17,1.69-.67,3.43-1.55,5.38-1.27,0.13,0.69-1.51,1.34-.43,1.8,5.69,2.41,6.79,9.89,13.18,11.52-2.47.25-4.4-.88-6.31-1.85-4.56-2.31-8.81-2-12.93,1-0.74.54-1.42,1.54-2.62,0.91l4.15-3.82c-2.8-.72-6.06-0.26-7-2-1.77-3.29-4.34-3.24-7-3-6,.54-11,6.8-11.7,14-0.32,3.3.69,5.47,4,6.59a70.7,70.7,0,0,1,7.92,3.28c2.13,1,2.71.32,3.09-1.75a24.3,24.3,0,0,1,6.73-13.44c0.16,1.36-.65,2.25-1.36,3.32-2.9,4.34-4.82,9.18-3.53,14.37,0.85,3.45,5.1,3,7.59,4.74,1.79,1.22,3,.92,3.06-1.62,0-3.42,2-6.31,2.91-9.47s4-5,6.57-7.13c4.68-3.9,8.77-4.74,13.33-1.49,0.85,0.6,1.54,2,2.83,1,1-.75.92-2.11,0.76-3.14a22.91,22.91,0,0,0-2.24-7.45c-0.61-1.15-1.53-2.31-1-3.79,1.05,1.39,2.13,2.75,3.13,4.17,0.7,1,1.48,1.73,2.77,1.33,4.91-1.5,9.8-3,15-4.63-0.88-1.14-1.49-1.91-2.07-2.69-6.66-8.9-6.65-8.9-17-5.69-6.16,1.91-6.15,1.9-1.88,6.95a1.82,1.82,0,0,1,.2.67c-1.79.85-2-1-2.77-1.72a9.91,9.91,0,0,0-9.58-2.8c-1.19.28-2.43,0.37-3.65,0.54,4.24-3,9.69-1.55,14.17-3.77,0.86-.43,2.14-0.31,2.59-1.28,2.28-4.89,6.79-5.75,11.4-6.47,0,0.94-.33,1.72,1.13,2.21,2.92,1,4.72,3.35,6.57,5.76,3.16,4.12,4.37,9,5.72,13.76,0.49,1.73.88,2.5,3,1.91,4.34-1.23,5.1-2.58,4.23-7.36-0.6-3.33-2.9-6.14-2.72-9.66a8.83,8.83,0,0,1,1.64,2.42c0.82,3.19,2.44,3.63,5.37,2.38a68.64,68.64,0,0,1,9.23-2.82c1.68-.45,2.43-1,1.07-2.62-2.2-2.7-4.3-5.48-6.46-8.2-0.53-.66-1-1.46-2.12-1.12l-13.06,4.07c1.46,2.4,3.81,3.56,4.44,6-1.81.64-1.92-1.11-2.64-1.94-3.56-4-7.56-6.72-13.29-4.67a6.55,6.55,0,0,1-2.2,0,6.15,6.15,0,0,1,4.41-1.66c3.52,0.29,4-1.3,4.05-4.41q1.24-80.39,2.7-160.78,1-61.28,1.88-122.56,0.65-40.84,1.45-81.68c0.06-2.69-.78-3.93-3.26-4.9-3.57-1.39-7.35-2.61-9.77-6a7,7,0,0,1-1.29-4.54c0.22-6.61-.22-13.24.45-19.85,0.1-1,.8-2.5-0.8-2.85-1.22-.27-1.39,1.21-1.91,2-3.48,5.12-7.36,9.45-14.42,8.87-2.26-.19-3.94-1.48-5.77-2.37-4.92-2.39-10.77-3-14.21-8.4-1.11-1.74-4.55-3.18-6.62-2.86-4.49.7-8-1-11.68-2.77a7,7,0,0,0-6-.22c-4.09,1.51-8.32,2.65-12.51,3.86-1.85.53-3.76,1.65-5.54-.35a2.12,2.12,0,0,0-1.74-.11c-7.25,2.26-12.53-1.08-17.25-6-1.58-1.65-2.69-3.63-5.4-4.17-1.89-.37-2.82-2.6-2.4-4.56,0.59-2.73-.24-5.13-1-7.58-1.54-4.71-1.36-9.75-3.28-14.46-1.12-2.74-.47-6.2,1.4-9A38.56,38.56,0,0,0,99,146.29L99,146.21c0.81,3.48,0,6.67-1.11,10-1.64,4.89-3.07,10-.53,15.13-0.47,3.1,1.4,5.74,1.7,8.68a16.88,16.88,0,0,1,0,2.9c-0.71,4.44.06,5.52,4.52,6.12l-0.11-.14c1.36,3.22,3.94,5.39,6.63,7.37,2.85,2.09,6.17,3.78,9.7,2.86,2.67-.69,5-1.47,7.91,1.75-1-5.13.8-8.52,1.92-12.11a26,26,0,0,0,0-16.75c0.29-2.6-1.78-4.52-2-7,1-2.59.65-5.14-.19-7.68,1.24,0.31,1.74,1.38,2.2,2.35a1.71,1.71,0,0,0,2.34,1.13c7.27-2.42,14.89-3.75,21.85-7.12l-0.08.11c-0.4,3.12,1.19,6,1.19,9-5.08-1.11-9.6-.29-13.52,3.44-1.11,1.05-1.49,2.93-3.36,3.15,2.9-6.81,8.63-8.56,15.6-8.7-1.11-1,0-3.86-3.09-2.88-6.53,2-13.08,4-19.6,6-0.59.19-2,.09-1.39,1.58a61.36,61.36,0,0,1,3.26,14.58c1.88-3.67,1.48-8.23,5.36-10.73-0.91,3.83-2.91,7.34-3.06,11.42-0.11,2.87.81,4.81,3.55,5.81,2.1,0.77,4.36,2.55,6.21,2.18,2.41-.48,1.49-3.65,2-5.66s1.62,0.84,1.31.09c-1.09-2.6,1-3.94,1.5-5.82a15.54,15.54,0,0,1,3-5.72c2.16-2.91,5.74-3.77,8.39-6,2.66,0.64,5.56,1.12,7.38,3.23,3.47,4,4.2-1.7,6.69-1.71s5.27-1.34,7.92-2a13.71,13.71,0,0,1,2.21-.22c-1.13,1.68-3.46,1-5,2.54a16.08,16.08,0,0,1,6.32,6.11c2.14,4,5.93,5.05,9.55,6.52a16,16,0,0,1,4.59,2.4c0.87,0.74,1.84,1.53,3,.63,0.9-.71.64-1.79,0.45-2.78s-0.32-2-.53-2.93c-2-9.67-8-14.09-17-12.67,1.64-1.88,3.79-2.12,6.07-1.89A24,24,0,0,0,212,156.76c0.84-.75,1.54-1.79,2.71-1.88,4.47-.36,4.62-3.3,4.46-6.79s0.27-7,.15-10.47c-0.1-2.75,1.11-3.94,3.63-4.67,10.27-3,20.47-6.19,30.75-9.14,1.83-.53,2.14-1.29,2.12-3-0.07-6,1.33-7.11,6.86-9.39s10.41-2.07,15.16,1.07,9.41,1.49,13.95-.09c10.55-3.66,21.35-6.47,32-9.92,1.44-.47,2.42.26,3.5,0.72q12.69,5.41,25.33,10.94a8.45,8.45,0,0,0,5.68.83c0.53,0.41-.55,1.19.52,1.62,3.7,1.5,7.34,3.14,11.79,5.07-3-5.91-7.11-7.45-12.41-6.62,1.74-1.54,3.81-1.5,5.94-1.15-0.82-3.61,1.58-5.21,4.2-5.62,3.42-.53,3.72-1.92,3.11-4.92-1.06-5.22-1.71-10.53-2.35-15.82-0.39-3.16-.52-7.31,2.56-8.39,4.9-1.74,9.56-5.87,15.61-2.79a119.91,119.91,0,0,0,16.47,7c4.31,1.44,8.48,3.15,12.69,4.81,5.64,2.24,10.5,6.08,16.34,7.86,6.88,2.1,13.43,5,20,7.81a11.35,11.35,0,0,1,4.85,4.21c-3.11-1.41-5.93-.39-8.92,1a18.12,18.12,0,0,1,5.6,9.95c0.49,3,2.09,2.77,4.25,2.23,2.88-.72,2.54-2.92,2.51-5,0-3.27-2.56-5.46-3.57-8.31,1.93,1.83,3.83,3,6.82,1.92a4.13,4.13,0,0,1,4.9,1.75c-1.73-.14-3.46-0.34-5.2-0.4-1.91-.07-3.19.21-2.19,2.79a15.47,15.47,0,0,1,.36,9.76,3.56,3.56,0,0,0,3.74-1.55,17,17,0,0,1,8.68-6.76c0.87-.28.63-0.91,0.78-1.44,4.75,1.36,9.07,3.37,11.84,7.75-2,.21-3.56-0.84-5.28-1.51-3.84-1.51-7.49-1.48-10.84,1.57,3.88,3.11,8.11-1.15,12.48,1-2.74.62-5.33,0-7.24,1.73l5.32,6c2.31-.58.24-2.71,1.79-3.49,1,1.18-1.16,3.82,1.86,4.07-0.53,1.12-1.12,2.21-1.6,3.35-3,7.31-.46,14,6.1,16.24,2.08,0.72,2.68.25,2.77-1.84,0.15-3.38,1.14-7,3.09-9.28a39.33,39.33,0,0,0,3.65-5.57,7.32,7.32,0,0,1,1.95-2.12,25.63,25.63,0,0,1,7.26-3.6c5.16,1.16,9.19,3.5,10,9.37,0.07,0.5.82,0.21,1.24,0A20.54,20.54,0,0,0,510,154c2.42-1,4.44-1.93,6.75-1.68l0-.08c0.64,0.4-1.49,2.25.23,1.34,2.39-1.27,3.28.32,4.32,1.27,3.24,3,5.2,6.86,7.25,10.7,1.12,2.1.06,5.37,2.21,6.36s4.64-1.11,7.06-1.61c5.15-1,5.94-3,4.36-8-1.1-3.43-3.14-6.34-4.51-9.59,3.41,2.57,5.19,6.18,6.24,10.17s4,4.88,6.89,2.18C552.49,163.46,551.69,161.36,551.57,159.42Zm-51.29,11.52-1.59-1.61c-1.74-2.67-5,.93-6.82-1.73,2.22-1,4.86.63,6.91-1.1l0-.81c0.59-1.69,4.11-1,3.3-3.2-0.6-1.66-3.09-1.64-4.95-1.94-3.78-.62-7.41.39-11.1,0.76,1.81-2.4,4.65-1.85,7.65-2.63-2.52-1.11-4.67-1.94-6.72-3-3.66-1.86-4.77-1.68-8.67-.61-6.15,1.68-12.12,4-18.82,5.08,4.29,1.88,8.3,3.53,12.21,5.38a8.82,8.82,0,0,0,7.14.68c0,0.75-1.56,1.54.16,2.25,3.69,1.51,7.35,3.1,11.33,4.79-2.39-5.45-6.57-6.92-11.56-7a9.1,9.1,0,0,0,6.46-4.25,1,1,0,0,1,.11.63c0.4,2.94,2.22,3.75,4.9,3.27,1.1,1.15-1.8,2.92.54,3.81,1.68,0.64,3.14,1.91,5.07,1.89a5.71,5.71,0,0,0,1.67,3.86C498.54,174,499.95,172.83,500.28,170.94Zm-253.2,48.49c-0.48,1.46-.44,2.52,1.36,3.2,2.47,0.93,5.08,1.65,7.18,3.41,0.59,1.16-.3,2.16-0.33,3.22-0.06,2.55-1.2,5.69.9,7.47s5.25,2.72,8,3.87c1.13,0.48,1.83,0,1.91-1.42,0.57-9.4,5-16.34,13.4-20.69,1.2-.63-0.38-1.32.28-1.82a10.38,10.38,0,0,1,6.53,2.42c3.35,3.06,5.79,2.24,8.53-.87-2.84-1.12-4.72-4.11-8.47-3.92a2.67,2.67,0,0,1-3-3.06c0.14-1.61-.09-3.25,0-4.87,0.15-2,.55-3.74,3-1.46a7,7,0,0,0,2.69,1.74c3.12,0.88,5.22,2.46,5.19,6,0,1-.37,2.13,1,3.08,0.13-1.18.22-2,.32-2.89,0.22-1.9,3.07-.75,3.19-2.76a3,3,0,0,1,1.09.82c-0.62,4.16,3.13,2.94,5,3.83,1.19,0.59,2.6-.8,4.34-0.55,7,1,12.24-.09,16.53-2.85l-6.9-3c-4.92-2.14-5.61-3.49-4.44-8.66,1.43-6.3,2.77-12.61,4.33-18.87,0.51-2,.16-3-1.91-3.79-5.2-2.06-10.27-4.46-15.41-6.68-5-2.14-10-4.22-15.27-6.44,0.54,3.76,1,7.06,1.49,10.35s1,6.63,1.63,9.93c0.3,1.59.38,3.49-1.13,3.93-3.27,1-6.35,3-10,2.35,0.9-.85,2.12-1.25,1.63-3.15a99.58,99.58,0,0,1-1.95-11c-1.62-11.66-4.27-23.17-5.16-34.94-0.29-3.89.54-4.56,3.93-3.1q21.6,9.29,43.18,18.62c4.29,1.86,5.1,3.4,4.1,7.85-2.27,10.18-4.71,20.32-6.86,30.53-2.44,11.57-3.76,8.76,6.9,13.61,4.21,1.92,4.2,1.81,5.22-2.71q5.26-23.24,10.6-46.46c1.46-6.29-2-14.1-7.33-16.42l-66.5-28.66c-2.16-.93-4.4-2.34-6.62-0.51s-2.56,4.57-2.22,7.18c0.87,6.53,2,13,3,19.53q3.5,22.24,7,44.47c-1.55-.37-1.6-1.65-1.8-2.88-1.17-6.93-2.67-13.83-3.43-20.81-0.62-5.67-1.65-10.59-8.14-12.16,2.32-1.7,4.06,1.84,7.19.46-13-5.49-25.13-11.33-38.44-16.39a3.62,3.62,0,0,0,2.55,2.33c8.66,3.73,17.32,7.44,26,11.23,1.16,0.51,2.82.63,2.84,2.5-1.51-.57-3-1.08-4.52-1.71q-13-5.57-26-11.2c-1.66-.72-2.7-1.06-2.63,1.47,0.12,4.23.07,8.47-.06,12.7-0.09,2.94,2.22,2,3.67,2.45,1.77,0.51,2.14-.48,2-2a2.75,2.75,0,0,1,2-3.19,2.85,2.85,0,0,1,3.16,1.5c1.27,3.36,3.52,2.19,5.72,1.5a43.15,43.15,0,0,1,4.6-1.49c3.13-.61,5.9-0.09,7.5,3.12-5.81-3.47-11.11-1-16.95,1.33a18.92,18.92,0,0,1,8.09,9.16c2.8,6.43,2.77,6.28,9.69,4.51,3.57-.91,4.8-2.53,3.47-6.09-0.4-1.08-.12-2.41-0.15-3.62a9.64,9.64,0,0,1,2.29,6.54c0.22,8.54.33,17.08,0.1,25.62-0.14,5.21-3.08,8.08-7.19,7.82a9.14,9.14,0,0,1-5.21-1.75c-0.65-.51-1.23-0.85-1.86.36A22.81,22.81,0,0,0,245,198c5.9,1.28,7.61,5.25,7.12,10.75-0.27,3-.14,5.74,3.71,6.5,0.65,0.13,1.26,1.21,1.59,2,0.7,1.65,1.88,1.31,3.12,1l-4.9,7.94c0.2-2.05-1.33-2.64-2.79-3.25-2.08-.86-4.48-1.17-5.73-3.42l8.11,3.19C253,219.45,251,218.75,247.08,219.43Zm-31.46-23.57c1.56,0.33,3.15,1,4.69.88,1.06-.06,3.09.19,3.18-1.15,0.13-1.92-1.82-.9-2.87-1.16s-2.15-.44-3.24-0.63c-1.79-.33-2.26.48-1.74,2.13-1.15,3.73.48,5.3,5.1,4.88,0.83-.08,2.06.16,2-1s-1.3-.78-2.07-0.83C218.46,198.82,215.73,199.5,215.62,195.86ZM521.74,608.55c3.39,1.14,6.79,2.26,9.51,4.75l-2.85-.84c-1.34-.39-2.4-1.72-4.12-0.6-2.25,1.45.25,2.49,0.1,3.73-0.09.73,0.13,1.51,0,2.22-0.59,3.23,1.47,5.94,1.73,9,0.1,1.17,1,1.35,1.94,1.1,3.13-.84,6.24-1.72,9.35-2.61a2.07,2.07,0,0,0,1.51-1.93,7.82,7.82,0,0,0-4.71-8.28c-1-.43-2.15-0.66-2.79-1.7,1.72-.4,2.39-1.05.35-2-3-1.43-6-2.75-9-4.13-2.61-1.21-5.07-2.81-8.86-3.53l3,2.76c-3-.68-2.8,1.17-2,2.86a3.53,3.53,0,0,0,3.72,1.88C520.22,611,521.89,610.84,521.74,608.55ZM373.93,274.94c-2.67-.18-4.72-2.65-7.63-2.07,5.6,2.89,11.34,5.36,17.07,7.85,0.66,0.29,1.2.39,1.43-.43a1,1,0,0,0-.75-1.11,16,16,0,0,1,3.19.94c2.54,1.36,3.24.43,3.27-2.15q0.38-33.15.89-66.31a3.08,3.08,0,0,0-2.18-3.36q-22.14-9.45-44.19-19.12c-2.36-1-3-.24-3.41,1.86-0.92,4.58-2,9.13-2.9,13.49,6.26,1,12.25.73,18-1.75,1.48-.64,3.1-0.93,4.62-1.48a4,4,0,0,1,4.2.6c-4.34,1-8.8,1.51-13,3.69,1.47,1.58,3,2.61,4.23,4s1.9,3.43,3.14,4.93c1.61,2,.4,6,3.42,6.37,2.49,0.29,5.21-1.34,7.83-2.11,0.24-.07.5-0.08,0.73-0.15,1.72-.53,2.13-1.47,1.77-3.38a23.56,23.56,0,0,0-6.24-12c4.57,2.38,6.79,6.46,7.65,11.26,1.63,9.09.92,18.28,0.13,27.36-0.69,7.87-4.92,9.54-12.2,5.64a1.12,1.12,0,0,0-1.65.37,1.83,1.83,0,0,0,.59.75c7.55,1.59,11,5.9,9.69,13.83-0.27,1.64-.72,4.7,3,3.85,0.31-.07.81,0.83,1.27,1.23,3,2.66,2.06,6.64,3.35,9.87-1.75-.95-3.87-1.08-5.4-2.51,0.91-2.66-.82-3.91-5.58-3.86C369.83,273.09,373,272.52,373.93,274.94ZM251.51,228.34c-1.85-.67-3.72-1.28-5.54-2-1.27-.53-2.11-0.14-2,1.12a5.15,5.15,0,0,0,3.28,4.57c1.87,0.73,3.32.07,4.71-1.2s0.07-1.8-.58-2.57c0.6-.89,1.8.12,2.87-1l-9.51-4.09C246.7,226.52,250.47,225.56,251.51,228.34Zm2.67,420.93,15.32-4.59c-8.15-7.21-15.51-1.74-23.53.24,2.8,2.3,6.05,2.43,8.31,4.47-2.14,1.68-3.82-1.31-6.39-.74,7.91,5.62,11.11,12.62,8.32,21.89,3-2.28,3.22-3.14,2.43-6C257.27,659.39,254.64,654.65,254.18,649.27ZM224.54,168.46c-1.32,0-2.3-1.4-3.91-.94a30.7,30.7,0,0,1,1.9,9.75c0,1.7.63,2.19,2.29,1.5a25.07,25.07,0,0,0,4.67-3c2-1.37,3.41-3.54,6-4-0.71,2-2.62,2.79-4.08,4-2.82,2.37-5.9,4.45-8.12,7.51,3.24-1.2,6.75-2.11,9.24-4.22,2.79-2.37,6.1-4.88,6.5-9.27-1.5.48-2.18,2-3.67,2.09,1.34-2.22,4.3-4,1.73-7.25-0.66-.83-0.76-2.24-2.17-2.16s-1.15,1.33-1.47,2.23c-1.81,5.12-4.4,6.14-8.95,3.58a2.07,2.07,0,0,1,.82-0.58c1.6,0,3.6,1,3.5-2.13-0.08-2.73-1.57-2.94-3.71-2.79-0.69,0-1.71.88-2.13-1.12-0.29-1.39-3.11-1.26-4.93-1.19-0.82,0-.51.54-0.67,1.07-0.73,2.41,1.7,1.87,2.41,2.87C221,166.2,224.41,165.37,224.54,168.46ZM348.7,147.56c3.45,1.4,6.93,2.73,10.35,4.21q44.39,19.2,88.77,38.41c0.8,0.35,1.76,1.19,2.7.07-0.37-.86-1.24-0.94-2-1.26L362,151.67c-4-1.72-8-3.5-12-5.17-0.71-.29-2.57-1.4-1.41,1-3-.89-3.35-4.15-5.32-6q27.91,12.13,55.82,24.26c18.47,8,36.88,16.19,55.73,23.3a7.78,7.78,0,0,0-3.26-2.25l-63-27.13c-14.15-6.1-28.28-12.23-42.47-18.24-0.65-.27-2-2.34-2.69.21-2.81-.63-5.19.52-7.85,1.68,2.7,3,4.88,6,5.46,9.74,0.55,3.44,2.23,3.08,4.62,2.28,3.13-1,2-3.57,2.07-5.63C347.84,148.89,346.44,147.53,348.7,147.56ZM223.16,223.1c1-.08,2.78.7,2.9-0.65,0.32-3.46.11-7,.11-10.44l-1.17.05c0,1.34.31,2.77-.07,4-0.72,2.33.59,5.17-1.78,7.06q0.08-5,.16-10.06c0-1.13.07-2.24-1.26-2.79-4.07-1.7-8.12-3.44-12.72-5.39a68.78,68.78,0,0,1-.06,7.64c-0.33,2.78.61,4.09,3.23,5.26C216.11,219.38,220.33,219.91,223.16,223.1ZM505.9,409.71c-0.56.76-.8,0-1.15-0.23l0.07,0.08c4.46-3,10.07-3.35,15.22-6.22-4.89-2.1-9.4-3.73-13.61-5.94-3.62-1.9-6.5-.73-9.76.94,2.53,1.41,4.71,2.78,7.26,3.41a2.27,2.27,0,0,1-.17,4.53c-2.16.2-4,1.25-5.92,1.89-2.31.76-4.11,0.9-4-2.63-0.24,2.29-.1,4.3-0.28,6.27s0.81,2.34,2.43,2c2.53-.47,5.06-1,7.58-1.45,1.49-.29,2.58-0.92,2.31-2.7,1.18,1.37,2.46,1.19,4,.59,3.48-1.34,7-2.45,10.55-3.71,1-.37,2.47-0.29,2.95-2.4C517.24,405.79,511.81,408.59,505.9,409.71ZM282.52,640c5.32,0.1,9.81-2.72,15.42-3.78-8.4-4.65-10.91-4.79-18.2-1.58-2.41,1.06-1.28,1.82.07,2.68-2.21-.78-4.59-1.24-6.08-3.33,3.88,0.56,7.17-1.59,10.76-2.35,1.79-.38,3.52-1.61,5.43-0.81C296,633.35,302.31,635,304,643.26c1.3,6.23,3.25,11.92-1.34,17.47-0.54.66-.71,1.61-1.2,2.32-1,1.4-.5,2,0.9,2.81C308,669.12,313,668,318,664.53c1.44-1,2.37-2.08,2.17-4a3.21,3.21,0,0,1,2-3.34c1.67-.79,2.46.73,3.46,1.56s1.07,2.17,2.83,1.83c5.45-1,11.28-.66,16.3-3.29,5.24-2.75,9.74.82,13.8,2.13,6.38,2,10.51,16.32,8.24,22.86a1.86,1.86,0,0,1-1.17,1.35c-2.74.74-3.1,3.36-4.28,5.32-0.69,1.15-.66,2,0.83,2.6,6.85,2.88,13.65,5.87,20.78,9,0.1-1.15.21-1.86,0.22-2.57,0.74-37.36,1.65-74.72,2.14-112.08,0.39-29.37,1-58.73,1.47-88.09,0.5-29.86.93-59.73,1.53-89.59,0.76-38.11,1.06-76.23,1.74-114.34,0.08-4.2-.17-7.18-5.24-7.64a13.89,13.89,0,0,1-5.14-2.12c-2.37-1.33-4.23-1.37-6.18.88-1.79,2.06-4.55,3.39-7,2.38-3.28-1.32-5.9-.2-8.79.71-3.79,1.19-7.64,2.16-11.44,3.3a2.51,2.51,0,0,1-2.05.14c-5-2.18-10.09-4.14-15.06-6.37-4.27-1.92-6.7-4.81-6.2-10.09,0.56-5.95.12-12,.28-18,0.11-4-4-5.51-4.86-8.88a2.74,2.74,0,0,0-1.35.13c-7.58,3.26-15.86,2.95-23.72,4.67-7.34,1.61-13.81-2.15-20.81-2.65-3.51-.25-6.79-3-10.31-4.19-4.91-1.66-7.7-5-8.39-9.93-0.26-1.87-.64-2.26-2.16-1.3a6.41,6.41,0,0,1-7.62,0c-0.88-.6-1.54.15-2.31,0.3-7.37,1.39-14.09,7.51-22.3,2.73-0.1,1-.2,1.66-0.21,2.28-0.72,36.23-1.58,72.47-2.11,108.7q-0.62,42.92-1.46,85.84c-0.73,35-1.07,70-1.62,105q-0.53,33.74-1.17,67.47c-0.06,3.16,1,4.06,4,3.2,3.71-1,7.42-2.09,11-3.39,2.45-.88,4.23-0.69,5.68,1.67a6.17,6.17,0,0,0,4.11,2.74c6.3,1.6,9.65,12.28,5.62,17.44-0.86,1.1-1.84,2-1.67,3.54,0.29,2.58-.27,4.71-3.48,5.17,1.52,1.62,3.38,1.77,4.85,2.66,5.72,3.46,10.55,1.36,15.76-1.75A30.44,30.44,0,0,1,273.78,634c0.37,1.77-1.06,1.42-1.87,1.41-1.79,0-3.31.64-5.28,1.42,7.68,4.42,11.49,11.17,13.3,19.17,0.88,3.91,2.84,4.91,6.23,2.82,2.14-1.33,1.68-3.4,1.5-5.37C287.19,648.48,284.25,644.47,282.52,640Zm56.43-419.42a41.67,41.67,0,0,0-2.88-4.34c-2-2.41-4.46-4.49-7.94-3.55-2.49.67-4.83,1.83-7.43,2.17a6.16,6.16,0,0,0-1.66.77,3.88,3.88,0,0,0,1.07,1.46c3.71,1.49,4.9,5,6.76,8,1.2,2,0,5.5,2.7,6,2.07,0.39,4.49-1.06,6.74-1.73,4.36-1.3,5-2.65,3.38-6.84-0.27-.69-0.55-1.37-0.81-2,1.65-.43,2.12.54,2.53,1.91a26.19,26.19,0,0,1,.82,6.26c0.09,1.68.63,2.66,2.53,1.57a45.41,45.41,0,0,0,12.44-9.85c1.64-1.95-.09-4.67-1.87-5.76-2.27-1.39-2,1.48-2.46,2.54-2,4.35-4.16,5.23-8.61,3.23C342.46,219.59,340.62,217.87,338.94,220.58ZM229.61,650.22c0.48,1.69,2.26,2.27,3.36,3.2,3.92,3.33,6.13,8.8,12,9.8a12.51,12.51,0,0,1,5.93,3c1.84,1.56,2.9.85,3.12-1.47,0.24-2.56-.71-4.91-1.5-7.21-2.77-8-7.9-10.74-15.93-8.85a19.33,19.33,0,0,1-3,.24c4-2.35,9.2-2.06,12.43-6-2.28-1-4.64-1.85-6.79-3.07-5.29-3-10.37-.5-14.16,2.08s-6.68,6.57-12.72,7c3.13,1.93,5.84,2.43,7.45,4.66a0.94,0.94,0,0,0,1.58-.18C223.47,650.64,226.88,651.29,229.61,650.22ZM294,229.44c-4.1-3.69-7.91-2.46-11.62.67a0.83,0.83,0,0,1-.36-0.05c1.75-2.28,4.2-3.75,6.53-5.41-4.22-3.27-8.22-3.32-12.2-.13a17.33,17.33,0,0,0-6.16,11.14c-0.78,4.63.35,6.2,4.78,7.72,1.67,0.57,2.21.24,2.37-1.5a23.76,23.76,0,0,1,4.78-11.93c0.26,1.61-.72,2.84-1.35,4.16a18.88,18.88,0,0,0-1.71,8.67c0,2.55,1.25,4,3.59,4.49a16.21,16.21,0,0,0,10.22-.92c3-1.38,4.19-3.4,4-6.75-0.18-3.74-2.6-6.69-3-10.27,2.83,2.68,3.59,6.4,4.8,9.86,0.4,1.14.45,2.06,2.06,2,5.18-.22,7.16-2.7,5.82-7.66a16.72,16.72,0,0,0-1.56-4.18c-2.15-3.63-4.62-6.94-9.6-6.4-1.86.2-4.28,0.31-5,1.85-0.56,1.24,1.76,2.32,2.82,3.45A7.5,7.5,0,0,1,294,229.44ZM278,683.53c-0.45-2.59-3.05-4.07-6.31-3.58-7.07,1.06-13.16,10.67-11.21,17.71,0.78,2.8,3.32,3.54,5.56,3.64,2.59,0.12,1.23-2.41,1.57-3.77,1.51-6.19,3.89-11.7,10.48-14.11,0.28,0.76-.15,1.07-0.77,1.39-5.52,2.87-7.57,7.92-8.36,13.65-0.31,2.23-.07,4.52,2.18,5.87,3.6,2.17,10.44,1.43,14-1.76,3.37-3,1.82-6.53.62-9.92-0.49-1.39-1.05-2.76-1.58-4.14,3.21,1.71,3.53,5.09,4.38,8,0.63,2.19,1.84,2.56,3.55,1.77,1.89-.87,5.41.17,5.11-3.51a20.07,20.07,0,0,0-2.72-8.77c-3.66-6.07-8.78-7.25-14.55-3.38,1.26,2.13,4.73,2.66,4.33,6C282.34,686.83,280.83,684.38,278,683.53ZM467.69,138.34c1.39,0.94,1.51,2.54,1.89,3.93,0.45,1.62,0,3.66,2.56,3.88,2.07,0.18,8.71-2.42,9-3.72,1.14-5.8.27-11-4.1-15.47-4.09-4.22-8.55-3.58-13.28-1.92-2.8,1-3,2.56-.92,5s4.69,4.72,4.88,8.34c-0.43.77-.17,3.47-1.89,0.73-1.51-2.42-2.21-5.41-4.92-7.11-0.86,1.62.59,1.91,1.11,2.58a18.42,18.42,0,0,1,4,15.35c-0.85,4.49-4.06,6.46-8.51,5.37-0.62-.15-1.19-1.09-1.91-0.16,3.21,4.28,8.25,3.81,10.54-1,1.43-3,.58-6.57,2.45-9.46a2.1,2.1,0,0,0-.22-1.07c-0.36.44,0.07,1.3-.95,1.53-0.22-1.19-.79-2.45-0.54-3.52S468.36,139.72,467.69,138.34Zm-120.49,535c-3.66-2.24-3.94-6.86-7.95-9.58,3.17-.45,3.39,2.9,5.74,2.11,4-1.35,8.1-2.56,12.28-3.86-6.6-5.41-13.08-4.06-19.4-.37a2,2,0,0,1-2.27,0c-2.46-1.16-4.85-.72-7.22.14-1.65.6-3.25,1.57-4.1-1a1.06,1.06,0,0,0-1.6-.4,1.59,1.59,0,0,0-.65,1.19c0,1,.77.91,1.59,1,3.86,0.2,6.67,2.32,9.16,5.1A30.37,30.37,0,0,1,340,683.22c0.14,0.81-.24,2.15.82,2.25a11.2,11.2,0,0,0,5.68-1.48c1.69-.8,1.42-2.54,1.1-4a16.21,16.21,0,0,1-.51-6.82,4,4,0,0,1,1.09,1.87c1.18,2.27-.43,6.14,2.29,6.93,2.11,0.62,4.91-1.12,7.4-1.84,7-2,7-2,4.7-8.9-2.8-8.31-2.8-8.31-11.26-5.85C345,667.24,345,667.24,347.2,673.31Zm-125.82-8.1c-0.67-3.32,3.29-3.31,4-5.61-1.1-1-2.49-.86-3.83-1a4.63,4.63,0,0,1-2.68-1c-3.26-3.58-6.38-4.51-10.28-2.49a14.65,14.65,0,0,0-7.84,10.58c-0.55,3-2,6.87,2.36,8.77,2.84,1.24,5.78,2.28,8.58,3.6,2.15,1,3.28,1.09,3.63-1.82,0.2-1.67,0-3.88,2.13-4.87a15.45,15.45,0,0,1-.39,3.65c-0.26,2.62-1.2,5.73,1.27,7.61,2,1.54,4.65,2.33,7.07,3.29,1.2,0.47,2.32.65,2.43-1.45,0.53-9.72,5.67-16.47,14.05-21.09-1.49-.71-3-1.37-4.4-2.1s-3.29-.53-4.24-2c-3.38-5.27-7.18-6.1-12.69-2.65A70.66,70.66,0,0,0,232.21,659,17.84,17.84,0,0,0,221.37,665.21ZM173.24,178.57l2.62-2.82a5.7,5.7,0,0,1-4.27-1.81c4-.3,7.53,2.4,11.09.3a6.73,6.73,0,0,0-4.24-2.84A8.07,8.07,0,0,0,170.9,173c-1.18,1.09-1.16,1.58-2,.59-3.36-3.77-7.6-4.23-11.66-1.14-4.57,3.48-6.54,8.33-6.91,13.89a4.1,4.1,0,0,0,2.45,4.28c3.19,1.42,6.42,2.74,9.62,4.13,2.3,1,3,.2,3.22-2.21a15.42,15.42,0,0,1,4.19-9.69c-0.63,3.54-2.51,6.71-2.92,10.33-0.38,3.37.26,5.91,3.93,7a22.67,22.67,0,0,1,4.05,1.93c2.1,1.12,3,.62,3.25-1.85,0.78-9.2,5.26-16,14.07-20.33-4.35-2.08-8.1-4.09-12.74-3.63C177.07,176.55,175.66,178.88,173.24,178.57Zm245.89,22.66c0.81-1.71-.22-2.41-1.59-3q-34.69-14.89-69.36-29.81c-0.57-.25-1.15-0.59-1.5.4,0.71,1.29,2.19,1.48,3.35,2,20.4,8.84,40.83,17.58,61.22,26.42,2.71,1.17,5.69,1.85,8,3.9,0.92,3.14-.36,6.18-0.41,9.29-0.21,14.6.26,29.2-.57,43.82-0.87,15.32.11,30.7-.78,46.06-0.83,14.32.11,28.69-.72,43.06-0.88,15.19.11,30.44-.78,45.68-0.84,14.32.1,28.69-.72,43.06-0.88,15.32.11,30.7-.78,46.06-0.83,14.32-.23,28.7-0.65,43.06-0.55,18.84-.49,37.7-1,56.55-0.27,10.73-.25,21.46-0.57,32.2-0.79,26.71-.71,53.44-1,80.17,0,0.62-.4,1.61.82,1.64a1.46,1.46,0,0,0,.77-1.6c0-5.62.46-11.22,0.67-16.83,0.55-14.84-.16-29.7.72-44.57,0.86-14.69-.12-29.44.75-44.18s-0.12-29.69.75-44.56-0.13-29.69.75-44.56-0.12-29.69.75-44.56-0.13-29.69.75-44.56-0.13-29.69.75-44.56c0.87-14.69.45-29.46,0.64-44.18,0.32-24.6,1.12-49.19,1.09-73.8,0-13,.89-26,0.65-38.94C421.15,203.3,421.58,201.45,419.13,201.23Zm33.79-77.49c0.1-8.52-2.73-12.77-8.92-15.42q-14.58-6.23-29.13-12.53-18.68-8-37.34-16.11c-2.62-1.14-4.93-1.24-6.33,1.66a10.19,10.19,0,0,0-1.09,6.15c1.75,10.92,3.38,21.85,5.22,32.76,0.26,1.52,0,3.54,2.22,4.35,2.91,1.07,5.75,2.34,8.56,3.66,1.8,0.85,2.58.58,2.29-1.52-0.13-1-.23-2-0.38-3-0.86-5.77-1.79-11.53-2.56-17.31-0.37-2.78,1.11-3.81,3.62-2.73,15.09,6.47,30.13,13,45.2,19.54,3,1.28,3.56,3.56,2.92,6.43-0.92,4.12-1.9,8.22-2.79,12.35-1.4,6.46-1.37,6.47,4.7,9.15,6.89,3,6.89,3,8.63-4.51,0.06-.24.17-0.47,0.22-0.71C449.75,138,451.52,130,452.92,123.74ZM344,182.78l-0.54,1c0.31,0.17.61,0.37,0.93,0.51,16.29,7,32.55,14.15,48.92,21,2.91,1.22,3.94,2.66,3.85,5.75-0.41,14.48.17,29-.67,43.45-0.87,14.95.12,30-.75,44.95-0.86,14.82.14,29.7-.76,44.57-0.87,14.57.12,29.2-.73,43.82-0.88,15.07.09,30.2-.78,45.32-0.84,14.58.14,29.2-.73,43.82-0.88,14.95.12,29.95-.76,44.94-0.87,14.7-.14,29.45-0.68,44.2-0.66,18.08-.47,36.21-0.88,54.32-0.53,23.48-.64,47-0.95,70.44,0,1.75-.24,3.49-0.27,5.24,0,0.86-1,2.25.47,2.48s1.5-1.29,1.51-2.4c0.07-7.49.3-15,.63-22.45,0.66-15-.12-30,0.75-45,0.85-14.58-.13-29.2.73-43.82,0.88-14.95-.11-30,0.77-44.94,0.86-14.7.34-29.46,0.67-44.19,0.66-29.59.77-59.19,1.67-88.78,0.45-14.85-.2-29.71.65-44.58,0.86-15.07-.13-30.2.76-45.32,0.85-14.45.31-29,.65-43.45,0.46-19.84.74-39.71,1-59.57,0.08-6.85-.71-7.89-7-10.59-10.26-4.39-20.51-8.84-30.76-13.25Q352.82,186.53,344,182.78ZM477.92,662.64H477.2c0,2.25-.1,4.5,0,6.75,0.06,1-.87,2.81,1.09,2.8,1.68,0,1.46-1.66,1.48-2.9,0.28-27.1.91-54.19,1.4-81.29,0.52-28.72.69-57.44,1.53-86.15,0.46-15.85-.05-31.72.72-47.59,0.69-14.09.38-28.22,0.67-42.33,0.61-30.47.9-60.94,1.62-91.41,0.57-24,.5-48,0.89-71.95,0.35-21.35,1-42.69,1.36-64,0-1.14,1-3.28-1.05-3.35-2.27-.07-1.48,2.2-1.51,3.51-0.11,5.2-.08,10.42-0.2,15.6-0.34,15.44-.47,30.88-0.73,46.31q-0.36,21.47-.72,42.94c-0.26,15.44-.57,30.87-0.79,46.31-0.2,14.06-.48,28.13-0.71,42.19-0.26,15.56-.56,31.13-0.78,46.69-0.19,13.94-.51,27.87-0.7,41.81-0.22,15.94-.59,31.87-0.82,47.81-0.2,13.69-.75,27.37-0.62,41.07,0.07,7-.51,14-0.62,21-0.14,9.2.17,18.41-.21,27.59-0.55,13.44-.89,26.87-0.63,40.32C478,650.42,477.92,656.53,477.92,662.64Zm-84.69,22.17c0,3.37-.06,6.75,0,10.12,0,1-.71,2.73.81,2.81,1.79,0.09,1.73-1.65,1.74-3.07,0.08-14.37,0-28.73.64-43.1,0.66-14.09.39-28.23,0.66-42.34,0.6-30.85.8-61.71,1.66-92.56,0.38-13.61.33-27.23,0.59-40.85,0.59-31.35.85-62.71,1.67-94.06,0.34-13.11.33-26.23,0.59-39.35,0.59-30.85.79-61.71,1.66-92.56,0.38-13.49-.51-27,0.69-40.47,0.09-1,.75-2.6-0.89-2.77-1.88-.2-1.59,1.5-1.6,2.7-0.08,7.24-.59,14.49-0.65,21.71-0.25,30.11-1,60.2-1.49,90.31-0.46,28.61-1,57.21-1.49,85.81-0.76,45.84-1.35,91.69-2.26,137.53-0.57,28.85-.79,57.71-1.52,86.56C393.62,649.08,394.31,667,393.23,684.81Zm39.87-8.52c0,2.37,0,4.75,0,7.12,0,0.7-.23,1.69.81,1.78s1.45-.78,1.49-1.75c0-.5,0-1,0-1.5,0.24-12.23-.08-24.46.61-36.71,0.85-15.07-.11-30.2.77-45.32,0.85-14.45-.12-29,0.73-43.45,0.88-15.07-.12-30.2.77-45.32,0.86-14.58-.12-29.2.73-43.83,0.88-15.2-.11-30.46.78-45.7,0.84-14.45,0-29,.71-43.45,0.82-15.82.3-31.71,0.77-47.57,0.78-26.09.68-52.21,1-78.32,0-.87,0-1.75.08-2.62,1.56-17.31-.34-34.72,1.31-52,0.09-.95.61-2.67-1.1-2.62-1.52,0-1.14,1.66-1.18,2.72-0.44,9.59,0,19.18-.59,28.8-0.91,14.55,0,29.15-.78,43.75-0.84,15.06.11,30.18-.76,45.28-0.84,14.57.11,29.18-.74,43.78-0.87,14.94.11,29.93-.76,44.9-0.85,14.69.08,29.42-.74,44.15-0.85,15.07.11,30.18-.76,45.29-0.84,14.44.07,28.92-.73,43.4-0.85,15.31.11,30.68-.77,46-0.83,14.32,0,28.68-.69,43C433.24,642.84,434.12,659.59,433.11,676.3Zm-35.23,19.47c2.31-1.37,2.27-3.34,2.31-5.3,0.3-14.73-.26-29.46.61-44.21s-0.12-29.7.75-44.58-0.13-29.7.75-44.58-0.12-29.7.76-44.58c0.87-14.7-.13-29.45.74-44.2,0.88-14.95-.13-30,0.76-45,0.87-14.7-.12-29.45.75-44.2s-0.13-29.7.75-44.58-0.13-29.7.75-44.58-0.11-29.7.74-44.58c0.71-12.34.21-24.74,0.19-37.12,0-.85.7-2.36-0.76-2.43-1.25-.06-1.32,1.44-1.21,2.36,0.78,6.25-.09,12.44-0.33,18.67-0.57,15,.16,29.93-0.71,44.91-0.86,14.69.11,29.43-.74,44.16-0.87,14.94.1,29.93-.76,44.9-0.85,14.69.1,29.43-.74,44.16-0.86,15.07.13,30.2-.76,45.32-0.86,14.44.09,28.92-.73,43.4-0.86,15.19.11,30.43-.77,45.66-0.84,14.44,0,28.93-.7,43.42-0.76,16.32-.12,32.68-0.85,49-0.59,13.09.15,26.2-.7,39.31C397.44,679.34,397.87,687.57,397.87,695.77Zm42.68-189.89c0,8.86-.13,17.71-0.58,26.58-0.73,14.46,0,28.95-.69,43.45-0.77,16.83-.07,33.71-0.86,50.57-0.6,12.72.46,25.47-.71,38.2-0.52,5.58-.12,11.24-0.07,16.86,0,0.84-.53,2.3,1,2.26,1.29,0,1.24-1.33,1.26-2.34,0-.25,0-0.5,0-0.75,0.2-13.61-.07-27.22.63-40.84,0.76-14.83,0-29.71.75-44.58,0.78-14.71,0-29.46.74-44.21s0-29.71.75-44.58,0-29.71.75-44.58,0-29.71.75-44.58,0-29.71.75-44.58,0-29.71.75-44.58,0.4-29.72.66-44.58c0.36-20.35.9-40.71,1-61.08,0-8.74-.43-17.49.65-26.21,0.12-1,.65-2.67-0.93-2.77s-1.3,1.53-1.31,2.61q-0.09,12.36-.65,24.7c-0.68,14.59.12,29.2-.72,43.83-0.87,15.07.11,30.2-.77,45.32-0.85,14.58.13,29.2-.74,43.82-0.88,14.82.12,29.7-.76,44.57-0.87,14.7-.32,29.46-0.65,44.19Q440.89,474.21,440.55,505.88Zm45.06,156.65a24.6,24.6,0,0,0,0,3.74c0.16,1.06-1,3,1,3,1.79,0,1.25-1.85,1.26-3,0.29-25.73.62-51.45,1.47-77.17,0.48-14.6-.09-29.21.66-43.83,0.78-15.21,0-30.46.77-45.71,0.75-14.46,0-29,.73-43.46,0.77-15.21,0-30.46.77-45.71,0.75-14.33.15-28.71,0.69-43.08,0.67-17.46.39-35,.83-52.45,0.62-24.22.66-48.46,1-72.7,0-1,0-2,.09-3,1.14-19.21.07-38.46,1.24-57.67,0.05-.88.8-2.63-1-2.58-1.58,0-1.2,1.63-1.22,2.68-0.17,11.11,0,22.21-.64,33.33-0.78,14.46,0,29-.72,43.45-0.78,16,0,32-.82,47.94-0.71,13.71.08,27.45-.68,41.2-0.86,15.45.09,31-.8,46.44-0.81,14.08,0,28.2-.69,42.32-0.8,16.2,0,32.46-.84,48.69-0.68,13.34.06,26.7-.67,40.07-0.85,15.57.05,31.2-.81,46.81-0.78,14.21.06,28.45-.69,42.7C485.68,630.54,486.89,646.56,485.61,662.53Zm-16.4-475.78c-1.66,1.27-1.56,3-1.6,4.71-0.37,14.84.2,29.68-.64,44.53s0.12,29.93-.75,44.91c-0.85,14.68.08,29.42-.74,44.14-0.84,15.06.11,30.18-.76,45.28-0.84,14.57.11,29.19-.73,43.81-0.87,15.18.07,30.42-.79,45.64-0.81,14.44.13,28.92-.72,43.4-0.88,14.94.13,29.94-.75,44.93-0.87,14.68.08,29.42-.75,44.15-0.85,14.94.06,29.92-.73,44.9-0.66,12.57-.21,25.2-0.22,37.81,0,0.74-.47,1.81.82,2.09,0.89-.42.82-1.22,0.82-2,0-6.74.38-13.47,0.66-20.2,0.61-14.59-.15-29.2.71-43.82,0.88-14.95-.13-30,0.76-44.94,0.87-14.7-.13-29.45.74-44.2,0.88-14.95-.12-29.95.76-44.94,0.86-14.7-.12-29.45.74-44.2,0.87-14.95-.13-29.95.76-44.94,0.86-14.57-.12-29.2.74-43.82,0.88-15.07-.13-30.2.76-45.32,0.86-14.57.38-29.21,0.64-43.82,0.38-21.35,1-42.7,1-64.06C469.9,189.53,470.43,188.09,469.21,186.75Zm-39,23.8c0-3.25,0-6.5,0-9.75,0-.72.2-1.75-0.75-1.86s-1.49.74-1.54,1.73c0,0.62,0,1.25,0,1.87-0.29,13.36.17,26.71-.61,40.08-0.88,15.07.12,30.2-.77,45.32-0.86,14.57.12,29.2-.74,43.82-0.88,15.07.13,30.2-.76,45.32-0.86,14.57.12,29.2-.74,43.82-0.88,15.07.13,30.2-.76,45.32-0.86,14.57.14,29.2-.74,43.82C421.86,525,422.88,540,422,555c-0.87,14.57-.43,29.21-0.64,43.82-0.33,23.35-1.18,46.7-1,70.06,0,5.86.43,11.74-.63,17.58-0.18,1-.63,2.67.87,2.83s1.36-1.46,1.37-2.55c0.06-8,.34-16,0.65-24,0.58-14.85.36-29.72,0.67-44.59,0.61-29.72.76-59.45,1.65-89.16,0.44-14.73.31-29.47,0.6-44.21,0.6-29.84.75-59.7,1.65-89.54,0.44-14.48-.07-29,0.65-43.46,0.77-15.58,0-31.22.79-46.83,0.71-14.21.12-28.46,0.69-42.71C430,245,429.14,227.77,430.18,210.55Zm36.64,305.84c-0.2,8.36-.25,16.71-0.54,25.07-0.6,17.34-.34,34.7-0.82,52.06-0.67,24.72-.64,49.45-0.95,74.18,0,1.86-.39,3.72-0.55,5.58-0.08,1-.51,2.38.78,2.52,1.61,0.17,1.42-1.4,1.42-2.48,0-8,.36-16,0.67-24,0.55-14.35.36-28.72,0.65-43.08,0.61-30.21.76-60.44,1.65-90.65,0.42-14.35.31-28.72,0.6-43.08,0.61-30.09.74-60.19,1.65-90.28,0.43-14.35,0-28.71.63-43.08,0.7-16.58.36-33.21,0.81-49.82,0.68-25.22.67-50.46,1-75.69,0-2.12.38-4.23,0.42-6.35,0.11-6.74.14-13.49,0.18-20.23,0-.7.15-1.64-1-1.53a1.3,1.3,0,0,0-1.18,1.25,17.76,17.76,0,0,0-.08,1.87c-0.27,14.1.2,28.2-.63,42.32-0.86,14.7.12,29.45-.74,44.2-0.88,14.95.12,29.95-.76,44.94-0.86,14.57.12,29.2-.74,43.82-0.88,14.94.12,29.95-.76,44.94-0.86,14.7-.32,29.45-0.65,44.19Q467.14,484.72,466.82,516.39ZM425,200.26c-1.83.93-1.61,2.59-1.65,4.14-0.35,14.71.18,29.42-.64,44.15-0.84,15.06.1,30.17-.76,45.27-0.83,14.57-.09,29.19-0.69,43.8-0.71,17.31-.18,34.68-0.91,52-0.51,12.21.09,24.43-.61,36.66-0.88,15.57.08,31.19-.81,46.8-0.81,14.19.08,28.42-.71,42.65-0.86,15.31.09,30.68-.79,46-0.81,14.2.08,28.44-.7,42.68-0.86,15.56,0,31.17-.78,46.77-0.6,12.33-.21,24.71-0.23,37.07,0,0.76-.49,1.8.87,2.18a2,2,0,0,0,.81-1.91c0-7.11.34-14.22,0.65-21.33,0.63-14.59-.13-29.2.72-43.82,0.87-14.95-.13-29.95.76-44.94,0.87-14.57-.14-29.2.74-43.82,0.89-14.94-.13-29.95.76-44.94,0.87-14.7-.14-29.45.74-44.19,0.89-14.94-.14-29.94.76-44.94,0.87-14.57-.12-29.19.74-43.81,0.88-15.07-.13-30.2.77-45.32,0.86-14.57.37-29.21,0.64-43.81,0.39-21.1,1-42.2,1-63.31C425.65,203,426.15,201.61,425,200.26Zm30.32-9c-0.56,5.87-.86,11.79-1.11,17.66-0.63,14.72.15,29.45-.72,44.19-0.89,14.95.13,29.95-.76,44.94-0.87,14.7.13,29.45-.74,44.19s0.13,29.7-.75,44.56,0.14,29.7-.75,44.57,0.13,29.7-.75,44.56-0.4,29.71-.64,44.56c-0.36,22.22-1.09,44.45-1,66.68,0,7-.52,14-0.51,20.95,0,23.61-1.17,47.2-.94,70.81,0,0.75-.36,1.86,1.5,2,0.27-2.67.72-5.34,0.77-8,0.3-14.86.3-29.72,0.6-44.58,0.59-29.59.75-59.19,1.64-88.78,0.45-14.85.3-29.72,0.61-44.58,0.61-29.72.75-59.44,1.65-89.16,0.45-14.73.32-29.47,0.6-44.21,0.58-29.72.91-59.44,1.61-89.16,0.61-25.85.63-51.71,0.88-77.57C456.5,193.72,457,192.41,455.33,191.3Zm-51.6,503.81c0.36-3.67.84-6.69,0.91-9.72,0.32-14.61.32-29.22,0.6-43.83,0.59-30,.76-59.94,1.64-89.9,0.44-14.73-.09-29.46.67-44.21,0.76-15,0-30,.76-45,0.76-14.71,0-29.46.75-44.2s0-29.46.75-44.2c0.78-15,0-30,.75-45,0.77-14.71.24-29.46,0.71-44.2,0.82-25.84.71-51.7,1-77.56,0-1,.61-2.24-0.63-3a1.35,1.35,0,0,0-1,1.49c0.14,5.63-.55,11.22-0.73,16.82-0.44,14.22.17,28.45-.65,42.7-0.88,15.32.12,30.7-.78,46.06-0.84,14.32.1,28.69-.72,43.06-0.87,15.32.1,30.7-.78,46.06-0.83,14.32.08,28.7-.72,43.07-0.86,15.44.09,30.95-.79,46.44-0.8,14.08.1,28.19-.7,42.32-0.88,15.44.11,30.95-.79,46.44-0.82,14.2-.42,28.46-0.62,42.69-0.33,23.22-1.23,46.45-1,69.68C402.39,692.27,401.93,693.47,403.73,695.11Zm30.95-488.66c0-2,.09-4,0-6-0.07-1,.78-2.69-0.85-2.77-1.85-.1-1.38,1.72-1.41,2.87-0.28,12.48.08,25-.64,37.45-0.85,14.58.12,29.2-.74,43.82-0.88,15.07.12,30.2-.77,45.32-0.86,14.45,0,28.95-.69,43.44-0.78,16.45-.05,33-0.86,49.44-0.64,13.09.12,26.2-.66,39.32-0.91,15.19.11,30.45-.79,45.69-0.85,14.45-.36,29-0.64,43.44-0.41,21.6-1,43.2-1,64.81,0,6.62.26,13.27-.22,19.86-1.26,17.45.31,35-1.22,52.4-0.08.89-.38,2.33,1.13,2.27s1.14-1.42,1.15-2.37c0-10.24.17-20.46,0.67-30.7,0.68-14.09,0-28.2.68-42.32,0.81-16.07,0-32.2.83-48.31,0.7-13.46,0-26.95.67-40.45,0.82-15.95,0-32,.82-47.94,0.73-13.71,0-27.45.66-41.2,0.76-17.08.08-34.21,0.87-51.31,0.58-12.59,0-25.2.65-37.83,0.82-15.82,0-31.7.82-47.56,0.74-13.71,0-27.45.68-41.2C434.61,239.94,433.38,223.17,434.68,206.46Zm-39.73,2.84c-1.94.9-1.55,2.14-1.6,3.18-1.13,21.33-.36,42.7-1.39,64-0.7,14.46-.36,29-0.65,43.45-0.6,30.09-.75,60.19-1.65,90.28-0.43,14.48.08,29-.65,43.46-0.77,15.21,0,30.46-.77,45.7-0.74,14.46-.38,29-0.65,43.45-0.38,20.35-.85,40.71-1,61.07-0.06,9.11-.49,18.24-0.53,27.33-0.1,21.86-1,43.71-.92,65.57,0,1-.66,2.69.89,2.79,1.36,0.08,1.22-1.6,1.38-2.66a11.56,11.56,0,0,0,0-1.5c0.27-14.73-.17-29.46.62-44.21,0.81-15.08-.08-30.21.77-45.32,0.82-14.45-.12-28.95.71-43.44,0.88-15.32-.12-30.7.78-46.06,0.84-14.32-.11-28.7.72-43.07,0.87-15.19-.1-30.45.78-45.69,0.83-14.45-.13-28.95.73-43.45,0.89-14.95-.14-29.95.76-44.94,0.88-14.7.45-29.46,0.64-44.19,0.32-25.48,1.38-50.95,1-76.43C394.91,215.71,394.95,212.73,394.95,209.3Zm84-16.06c0-2,.12-4,0-6-0.09-1.05,1-3-1-3s-1.26,1.82-1.29,2.95c-0.32,12.6.11,25.2-.64,37.82-0.87,14.7.12,29.45-.75,44.19-0.88,14.95.14,29.95-.76,44.94-0.87,14.57.11,29.2-.74,43.82-0.88,15.2.13,30.45-.77,45.69-0.86,14.45.12,28.95-.73,43.44-0.89,15.2.13,30.45-.77,45.69-0.86,14.45-.2,29-0.66,43.44-0.63,19.58-.48,39.21-0.93,58.81-0.2,8.49.34,17-.27,25.48-1.23,17.08.4,34.22-1.21,51.28-0.09,1-.45,2.62,1.24,2.54,1.29-.06,1-1.5,1-2.46,0.1-9.61.16-19.21,0.65-28.83,0.74-14.33-.12-28.7.72-43.07,0.88-15.2-.12-30.45.77-45.69,0.85-14.45-.11-28.95.72-43.44,0.88-15.32-.11-30.7.78-46.07,0.83-14.32-.11-28.7.72-43.07,0.88-15.2-.11-30.45.78-45.69,0.84-14.32-.11-28.7.72-43.07,0.88-15.32-.11-30.7.78-46.07,0.83-14.32,0-28.7.7-43.07C478.84,227,477.66,210.08,478.93,193.24ZM456,678.35l1.15,0c-0.09-6.06.49-12.08,0.7-18.11,0.51-14.35-.16-28.7.67-43.07,0.88-15.32-.12-30.7.78-46.06,0.84-14.32-.11-28.69.72-43.06,0.88-15.32-.11-30.7.78-46.07,0.84-14.32-.09-28.69.71-43.07,0.86-15.44-.09-30.95.79-46.44,0.8-14.08-.1-28.2.7-42.32,0.88-15.44-.1-31,0.79-46.44,0.81-14.2.42-28.46,0.62-42.69,0.33-23.1,1.21-46.2,1-69.31,0-1.13.6-2.51-1.3-3.77-0.35,3.58-.87,6.83-1,10.09-0.4,14.48.18,28.95-.64,43.45-0.87,15.45.1,31-.79,46.44-0.81,14.2.09,28.45-.71,42.69-0.86,15.45.08,31-.79,46.44-0.8,14.2,0,28.45-.7,42.7-0.82,15.82,0,31.7-.82,47.56-0.74,13.71.07,27.45-.69,41.19-0.86,15.57-.25,31.2-0.75,46.81-0.83,26.33-.7,52.7-1,79.05,0,1.12,0,2.25-.15,3.37-1.17,13.22-.24,26.47-0.53,39.7A2.58,2.58,0,0,0,456,678.35Zm25.1-476.87c0.14,4.88-.41,11.72-0.68,18.58-0.56,14.34.15,28.7-.68,43.07-0.88,15.19.11,30.45-.78,45.69-0.84,14.45,0,28.94-.69,43.44-0.77,16.58-.06,33.21-0.86,49.81-0.62,13,0,25.95-.64,38.94-0.79,16.32,0,32.7-.84,49.06-0.68,13.34-.06,26.7-0.65,40.07-0.75,17.2-.1,34.45-0.88,51.68-0.56,12.47-.07,25-0.63,37.45-0.75,17,.08,34-0.87,50.93-0.05,1-1,2.91,1.09,2.87,1.5,0,1.16-1.68,1.15-2.74,0-12.61.14-25.21,0.7-37.82s0-25.45.64-38.2c0.78-16.2,0-32.45.84-48.68,0.68-13.46,0-26.95.66-40.45,0.8-16.2,0-32.45.84-48.68,0.69-13.46,0-27,.66-40.45,0.76-16.45.06-33,.86-49.43,0.63-13.09,0-26.2.66-39.32,0.82-15.95,0-31.95.8-47.93,0.59-12.09-.23-24.26.37-36.35,0.94-19.09-.1-38.2,1.21-57.27,0.07-1,.55-2.74-1-2.73-1.81,0-1.22,1.86-1.24,3C481.08,190.49,481.11,195,481.11,201.48ZM433.79,384c-0.1,8.61-.09,17.21-0.54,25.83-0.78,14.7.11,29.45-.75,44.19-0.88,15.07.13,30.2-.76,45.32-0.86,14.57-.37,29.21-0.64,43.81-0.39,21.22-.94,42.45-1,63.68,0,8.23-.25,16.47-0.54,24.7-0.61,17.46,0,35-.88,52.44,0,0.89-.8,2.63,1,2.61,1.58,0,1.22-1.6,1.24-2.66,0.22-11.11,0-22.21.63-33.33,0.83-14.7-.11-29.45.75-44.19,0.87-14.95-.13-29.95.76-44.94,0.87-14.7-.12-29.45.75-44.19,0.87-14.95-.13-29.95.76-44.94,0.87-14.7-.13-29.45.74-44.19s-0.13-29.7.75-44.57c0.87-14.7.4-29.46,0.64-44.19,0.36-22.1,1.06-44.2,1-66.31,0-7.23.3-14.47,0.54-21.7,0.58-17.34-.1-34.71.89-52.06,0.06-1,.5-2.75-1-2.83-1.87-.1-1.28,1.76-1.31,2.88-0.27,10.73,0,21.46-.63,32.2-0.84,15.07.11,30.2-.78,45.32-0.85,14.45-.3,29-0.65,43.44C434.33,341.51,434.18,362.74,433.79,384Zm56.72-204.65c-0.44,4.83-1,8.69-1.11,12.55-0.41,14.6.19,29.21-.65,43.83-0.88,15.2.12,30.46-.77,45.7-0.85,14.45,0,29-.7,43.45-0.77,17-.08,34-0.86,50.95-0.58,12.59,0,25.21-.65,37.83-0.86,15.45.08,31-.79,46.44-0.8,14.21.09,28.46-.72,42.71-0.86,15.2.12,30.46-.77,45.7-0.84,14.33-.48,28.72-0.64,43.07-0.29,25.23-1.36,50.46-1,75.7,0,1-.53,2.25.61,3.07a1.23,1.23,0,0,0,.94-1.45c-0.05-4.5.55-9,.69-13.46,0.47-15-.17-30,0.69-45,0.85-14.7-.07-29.46.75-44.21,0.84-15-.13-30,0.75-45,0.86-14.57,0-29.2.71-43.83,0.82-16,0-32,.82-47.95,0.71-13.59,0-27.2.67-40.83,0.82-16,0-32,.83-47.95,0.72-13.71,0-27.45.66-41.2,0.77-16.45.11-33,.84-49.45,0.52-11.85-.09-23.76.47-35.61,0.52-11.12.13-22.23,0.32-33.34C491.64,180.89,491.3,180.6,490.51,179.33ZM451.06,679.38l1.34,0.11c0.34-4.27.88-8.53,1-12.81,0.41-14.73-.22-29.45.65-44.19,0.88-15.07-.11-30.19.77-45.31,0.85-14.57-.12-29.2.73-43.82,0.87-15.07-.13-30.19.77-45.31,0.86-14.45-.11-28.94.73-43.44,0.88-15.19-.12-30.45.77-45.69,0.84-14.45.37-29,.63-43.44,0.37-20.72,1-41.44,1-62.17,0-8.73.49-17.49,0.51-26.2,0.05-25,1.31-49.95,1-74.93,0-.85.4-2-1.29-2.45-0.35,4.71-.86,9.26-1,13.82-0.42,14.73.22,29.45-.66,44.2s0.13,29.7-.75,44.56c-0.88,14.69.13,29.44-.75,44.19-0.89,14.94.14,29.95-.76,44.94-0.88,14.69.13,29.44-.74,44.19-0.89,14.94.13,29.95-.76,44.94-0.87,14.7.14,29.45-.74,44.19s0.14,29.69-.75,44.56-0.39,29.7-.65,44.56c-0.39,22.85-1.13,45.69-1,68.55C451.06,674.74,451.06,677.06,451.06,679.38Zm-43.87,13.53h1c0.34-4.66.86-9.31,1-14,0.4-14.6-.2-29.2.65-43.82,0.88-15.2-.12-30.45.77-45.69,0.85-14.45-.11-28.95.73-43.44,0.87-15.07-.11-30.19.77-45.31,0.85-14.57-.12-29.2.73-43.82,0.88-15.07-.11-30.2.77-45.31,0.85-14.57-.12-29.2.73-43.82,0.87-15.07-.12-30.2.77-45.31,0.85-14.45.44-29,.63-43.44,0.32-24.1,1.3-48.2,1-72.31,0-1.13.61-2.51-1.26-3.74-0.36,4.7-.87,9.07-1,13.46-0.44,14.48.17,29-.64,43.45-0.87,15.44.1,30.95-.79,46.44-0.82,14.08.12,28.19-.71,42.31-0.9,15.19.12,30.45-.77,45.69-0.86,14.57.14,29.2-.73,43.81C409.85,453,410.88,468,410,483c-0.88,14.57.13,29.19-.74,43.81-0.9,15.07.15,30.2-.76,45.31-0.88,14.57-.39,29.21-0.64,43.81-0.39,23-1.14,45.95-1,68.93C406.85,687.56,406.47,690.29,407.19,692.91Zm44.13-500.67a2,2,0,0,0-1,2.06c0.08,7.12-.3,14.22-0.62,21.33-0.64,14.34.13,28.7-.7,43.08-0.89,15.32.13,30.71-.78,46.07-0.84,14.2.11,28.45-.72,42.7-0.89,15.32.13,30.7-.78,46.07-0.85,14.33.13,28.7-.72,43.07-0.9,15.2.14,30.45-.77,45.69-0.87,14.45.12,29-.73,43.45-0.89,15.2.12,30.46-.77,45.7-0.85,14.45-.35,29-0.63,43.45-0.42,21.22-1,42.46-.94,63.69,0,1.27-1,3.63,1,3.66,1.54,0,1.18-2.38,1.28-3.83,0-.25,0-0.5,0-0.75,0.32-14.61-.24-29.21.61-43.83,0.88-15.07-.11-30.2.77-45.32,0.85-14.58-.11-29.2.73-43.83,0.87-15.07-.11-30.2.77-45.32,0.84-14.45-.1-29,0.73-43.45,0.87-15.2-.12-30.46.77-45.7,0.84-14.45,0-29,.7-43.45,0.75-16.7.1-33.46,0.86-50.19,0.59-12.84,0-25.71.65-38.58,0.82-15.83,0-31.71.8-47.57,0.6-11.85.19-23.74,0.21-35.62C452,194,452.44,193.07,451.31,192.24Zm-241,457.52c-1.71-.79-3.33-1.44-4.85-2.27-5.25-2.86-9.79-1.53-13.94,2.24a20.34,20.34,0,0,0-5.51,8.71c-2.46,7.42-.77,10.26,6.45,13.23,3,1.25,3.72.57,4-2.62,0.66-7,4-12.83,10.09-16.45A14.63,14.63,0,0,0,210.3,649.76Zm60.2,25.93c-4-1.85-7.42-4.12-11.49-3.82-8.58.62-15.38,12.55-13.74,20.79a2.73,2.73,0,0,0,1.24,2.2c2.47,1.16,5,2.31,7.5,3.31,1.56,0.61,2.62-.23,2.25-1.8-0.94-4,1.64-7.14,2.91-10.26C261,681.53,265.22,678.24,270.5,675.69Zm6.37-535.5c-1.8.65-3.26,1.24-2.86,3.58,2.25,13.32,4.4,26.66,6.66,40,0.16,1-.8,3.57,1.81,2.31,1.77-.85,5.6.78,4.84-3.73-2.14-12.71-4.27-25.43-6-38.2C280.85,140.86,278.43,141.31,276.86,140.19ZM379.27,78.83c2.12,0.93,3.7,1.63,5.28,2.32,19.28,8.33,38.59,16.58,57.8,25.07,3.54,1.57,6.63,1.77,10.13-.23-0.82-.4-1.47-0.74-2.14-1-20.42-8.82-40.88-17.55-61.22-26.55A10,10,0,0,0,379.27,78.83Zm-39.93,61.4-3.44-1.51c-20.11-8.7-40.26-17.31-60.3-26.17-3.39-1.5-6.12-1.22-9.38.62,0.86,0.4,1.4.67,2,.91,20.34,8.79,40.73,17.48,61,26.44C332.64,142.05,335.65,142.46,339.34,140.23ZM314.65,107L485.56,180.6l0.48-1.09c-0.85-1.34-2.44-1.52-3.72-2.07q-82-35.47-164-70.82C317.21,106.12,315.84,105.1,314.65,107ZM299.8,218.87c6.33,4.63,10.12,10.32,11.37,17.58,0.18,1,.34,2.07,2.09,1.92,10.61-.94,13.06-5.34,8-14.85a20.28,20.28,0,0,0-3.53-4.76c-2.05-2-4.62-3.59-7.62-3C306.79,216.49,303.59,217.71,299.8,218.87Zm-10,457.86c5.71,3.9,8.2,7.38,10.42,13,0.85,2.16-.49,5.78,2.6,6.29,2.22,0.37,4.75-1.11,7.13-1.77a9.79,9.79,0,0,1,1.05-.37c2.76-.42,3.42-2.31,3-4.64a23.75,23.75,0,0,0-6.2-12.83,9.27,9.27,0,0,0-9.24-2.56C295.67,674.51,292.93,675.67,289.77,676.73ZM431.48,146.33c1.36-1.41,1.22-3,1.57-4.43,0.65-2.65,2.24-5.6,1.58-7.9-0.77-2.68-4.93-2.26-7-4-3.22-2.66-5.83-4.08-9.73-.65-1.93,1.7-5.38,1.65-8.11,2.5-1.47.46-3,5.61-1.86,6,4.77,1.54,8.65,5.8,14.47,4.27C426.12,141.11,429.25,142.71,431.48,146.33ZM302.29,109.5l-0.49,1.44,170.39,73.49,0.6-1.41Zm165.35,76.21c-6.57-5.46-167.55-74.09-170.08-73.38ZM336.52,685.31q-2.21-6.5-4.42-13c-0.47-1.38-1.35-.58-2.11-0.35-4.14,1.25-8.27,2.57-12.44,3.72-1.29.36-2.07,0.7-1.55,2.18q2.33,6.65,4.64,13.3c3.94-.43,7.52-2.17,11.31-3.11,1.2-.3,2.34-0.82,3.53-1.13A1.22,1.22,0,0,0,336.52,685.31ZM262,665.3c4.52-1.35,9-2.66,13.54-4.08,1.47-.46,1.2-1.65.82-2.79-1.18-3.53-2.35-7.06-3.5-10.6-0.5-1.54-1.32-2.25-3.05-1.7-4,1.28-8.08,2.43-12.11,3.68-1.37.43-1.92,1.15-1.29,2.79,1.37,3.59,2.42,7.31,3.68,10.95C260.33,664.37,260.37,665.74,262,665.3ZM481,181.71l0.56-1.3L311.35,106.92l-0.58,1.36ZM293.61,112.34L293,113.7l170.35,73.39,0.55-1.28Zm200.05,65.41,0.55-1.28L324.07,103.09l-0.54,1.25Zm-186.8-69.33-0.37,1.25,169.86,73.28,0.52-1.22Zm-17.49,5.39L288.84,115l169.88,73.3,0.51-1.2Zm200.23,65.24,0.54-1.2L320,104.49l-0.5,1.17Zm-185,472c-1.47-4.34-2.92-8.68-4.41-13-0.34-1-1.14-.73-1.87-0.51-3.92,1.18-7.83,2.4-11.75,3.55-1.46.43-1.71,1.06-.89,2.39a26.6,26.6,0,0,1,3.78,11.21c0.16,1.43.35,2.25,2.26,1.56,3.61-1.3,7.37-2.17,11-3.34C303.51,652.71,305,652.71,304.6,651.1ZM504.5,159.44c3,2.09,5.75,4.5,7,8,3,8.23,2.87,8.26,11.13,5.48a11.14,11.14,0,0,1,1-.39c1.66-.38,2-1.43,2-3a14.36,14.36,0,0,0-9.09-12.85,4.4,4.4,0,0,1-2.4-1.66C511.93,158.55,507.47,157.32,504.5,159.44ZM199.14,164a23.23,23.23,0,0,1,8.51,10.65c0.69,1.65.25,4.31,2,4.83,1.51,0.46,3.53-.7,5.31-1.23,6.66-2,6.92-2.6,4.07-9.27a22.52,22.52,0,0,0-1-2.41c-2-3.56-6.37-6.44-8.94-5.74C205.87,161.71,202.75,162.84,199.14,164Zm325,305.67c0-3.26-6.93-7.79-9.93-6.51a2.44,2.44,0,0,0-1.72,2.61c0.3,2.84-1,5.17-2.72,7.15-2,2.42-1.6,4.58.05,6.71a5.34,5.34,0,0,0,6.63,1.86C520.64,479.94,524.15,474.67,524.1,469.68Zm-12,120c-4.61.13-9.46,5.16-9.91,9.73s1.46,6.78,6.57,8.14c2,0.52,2.29-.58,2.6-2.12,1-4.78,3-8.83,7.84-10.87,1-.42,1.51-1.13.24-1.79C516.93,591.43,514.53,589.8,512.1,589.65ZM351.75,273.11c0.07,3.53,5.36,7.66,7.92,6.89,0.93-.28.92-1.08,1.1-1.76a17.76,17.76,0,0,1,8.63-11.43c0.85-.47.51-1,0.06-1.44-2.1-2.1-9.16-3.72-11.47-2.39C353.9,265.35,352.57,269.46,351.75,273.11Zm46.46-139.72c-1.38-8.73-2.56-16.66-3.94-24.56-0.42-2.42-2.77-2.6-4.62-2.59-2.13,0-2.76,1.52-2.41,3.59,1.05,6.22,2.06,12.45,3,18.69a2.4,2.4,0,0,0,1.62,2.18C393.76,131.48,395.67,132.31,398.21,133.39ZM208.86,225.16c-1.18,3.93.89,6.28,5.21,7.44a33,33,0,0,1,6.12,2.66c1.78,0.9,2.58.66,2.93-1.49,1.34-8,.66-9.42-6.64-12.54l-1.36-.6C208.91,217.9,208.91,217.9,208.86,225.16Zm32.27,4c0.22-7,3.25-11.77,8.84-15.28-1.49-.67-2.82-1.24-4.13-1.85-5.49-2.56-9.94-.92-12.31,4.84-2.51,6.11-2.49,8.87,4.47,11C238.93,228.16,239.8,228.62,241.12,229.18Zm87.8,40.54c-0.08,1.48-.17,2.44-0.18,3.4-0.08,8.87-.08,8.87,8.12,12.45,5.68,2.48,5.68,2.48,5.73-3.88,0-1.37,0-2.73,0-4.1,0-1-.08-2-1.22-2.46C337.35,273.39,333.3,271.62,328.93,269.72ZM305.71,669c-4-2.83-7.7-3.64-12.51-2.23-6,1.75-10.65,6.41-17,7-1.2.12-2.55,0.06-2.95,1.84,0.8,0.29,1.6.57,2.4,0.87,1.88,0.71,3.27,3,4.68,3.18,1.61,0.18,3.08-2.28,5.16-3.09C292.09,674.08,299.49,673.65,305.71,669ZM343.14,267.1c-0.83-1.43,1.77-3.91-1.25-5.18-3.42-1.44-6.85-2.87-10.21-4.44-2-.92-2.58-0.24-2.86,1.69-1.09,7.3-.53,8.39,6.27,11.37l1.7,0.75C342.63,273.8,342.63,273.8,343.14,267.1ZM493.71,420.93c0,6.95,1,7.77,7.86,6.13,0.84-.2,1.67-0.44,2.49-0.68a2,2,0,0,0,1.62-1.39c0.43-3.45,1.08-7.23-.21-10.26-0.85-2-4.19-.19-6.42,0a12.07,12.07,0,0,1-2.23.09c-2.33-.22-3.5.61-3.14,3.12A20.72,20.72,0,0,1,493.71,420.93ZM349.47,149.36l-0.58,1.35,96.82,41.78,0.58-1.36Zm0.7,3.77-0.64,1.16,91.54,39.5,0.55-1.26ZM498,571.43c1,0.89,2,1.8,3,2.66,2.31,1.92,1.93,3.29-.64,4.69-2.36,1.28-4.73,1.19-7.2.86-0.67-.09-1.48-0.72-1.87.36-0.31.84-.52,2,0.26,2.43,1.74,1.06,3.43,2.8,5.66,2.15,6.27-1.82,12.49-3.85,19.23-6C510.43,575.39,504.73,572.54,498,571.43Zm-4.4-136.87c0,1.24.06,2.49,0,3.73-0.08,1.4.49,2.18,1.89,2.09,2.21-.14,4.44-0.27,6.62-0.63s3.39-1,3.43-4c0.1-7.29.43-7.29-6.6-6.64C493.7,429.62,493.7,429.62,493.65,434.56Zm-57-239.48,0.49-1.33L349.56,156,349,157.3Zm-88.17-33.13-0.58,1.42,80,34.42,0.56-1.32Zm0.84-2.72-0.58,1.19,83.46,36,0.5-1.17Zm-1.44,5.87-0.55,1.22,75.89,32.75,0.52-1.22ZM306,670.68c8,7.31,15.54,1.84,23.5-.28-5.17-3.73-10.24-4.76-15.9-2.09A53.62,53.62,0,0,1,306,670.68ZM346.37,171l-0.5,1.19c22.88,9.8,45.63,19.94,68.61,29.51l0.5-1.18Zm64,32.25,0.45-1.4-65.16-28.06-0.57,1.36Zm-4.54,1.32,0.53-1.26L345.25,177l-0.53,1.25Zm-9.59-95.77c-0.27,3.68,1,7.11,1.47,10.62,0.23,1.56.27,3.44,2.46,2.52s6.13,0.18,6-3.94C406,112.83,403.41,110.56,396.2,108.77ZM521.79,402c3.57,0.34,4.15,2.58,4.08,5.32,0,1.12,0,2.25,0,3.36,0.08,1.48-.1,3.53,1.42,4,1.88,0.53,4-.41,5.57-1.55,1.37-1,1.24-2.68.7-4.11a17.28,17.28,0,0,0-3.36-6.16C527.73,400.25,525,399.85,521.79,402ZM246.54,200.76c-6.08-3.47-8.44-4.29-11.57-2.48-2.63,1.52-4.94,3.37-8.05,4.09-1,.23-2.37,2.71-2.07,3.71,0.52,1.76,2.28.49,3.5,0.13C234.35,204.44,240.36,202.62,246.54,200.76Zm120,51.52c-4.46-2-8-4.66-12-2.23-2.51,1.54-4.79,3.13-7.75,3.86-1.06.26-2.5,2.79-2.21,3.86,0.48,1.75,2.33.44,3.52,0.09C354,256.13,359.89,254.3,366.53,252.29Zm-21.92-72.45L344,181.17,401.59,206l0.58-1.34Zm160.13,36.71c-0.64-1.4,1.3-4.14-1.34-4.79-1.8-.44-4.26-0.5-5.79,1.42-0.59.74-.27,9.52,0.28,9.83a3.54,3.54,0,0,0,1.4.3C503.4,223.72,504.75,222.12,504.75,216.55Zm-8,16.8c0,0.45,0,1.82,0,3.18a1.26,1.26,0,0,0,.78,1.5c2.13,0.67,5.46-1.44,5.79-3.75a39,39,0,0,0,.52-5.2c0-1.57.83-3.86-2-3.93-2.36-.06-5.28-0.53-4.8,3.55A28.88,28.88,0,0,1,496.77,233.35Zm-103.71-25,0.52-1.22-50.34-21.71-0.53,1.25ZM503.47,462.07c-1.29,4.33-4.66,3.59-7.06,4.7-1,.44-1.83.72-1.87,2a2.13,2.13,0,0,0,1.66,2.16c2,0.86,4,1.85,6.09,2.71,1.43,0.6,2.39.41,2.24-1.52C504.3,469.13,504.91,466.12,503.47,462.07ZM351.49,211c-1.51-1-1.34-3.26-3.36-3.76a22.13,22.13,0,0,0-12.09,0c-0.8.25-1.94,0.39-1.91,1.4a2.31,2.31,0,0,0,2,1.93,21.66,21.66,0,0,0,11,.39A6.16,6.16,0,0,1,351.49,211Zm-128.85-51.3a13.43,13.43,0,0,0,6.74-1c1.47-.68,2-1.69.13-2.5a18.12,18.12,0,0,0-14.49,0c-1,.39-0.87,1.11-0.88,1.81s0.64,0.94,1.3,1C217.93,158.94,220.29,160.1,222.64,159.66ZM499.2,452.27c5.64-1,10.59-2,15.19-4.35,2.59-1.31,4.15-4.29,2.7-6.66-0.82-1.34-2.17-2.91-4.28-2-2.28.94-.53,2.1-0.13,3.22,0.7,2-.29,3.36-1.73,4.52-2.19,1.77-4.86,2.43-7.51,3C502.07,450.33,500.5,450.11,499.2,452.27ZM283.93,147.1l-0.65,1.4L322,165.1l0.56-1.31Zm58.51,87.48c1.5,0.82,2.58-1.12,3.79.73,1.55,2.37,4.22,1.88,7-1-2.39,0-4.62,2.07-6.84-.24,5-3.09,10.64-5.64,12.46-13ZM322.34,162l0.53-1.21-39.53-17.09-0.52,1.2ZM284.53,150.7l-0.75,1.16,37.39,16.21,0.53-1.22Zm0.16,3.25L284,155.27l36.61,15.86,0.59-1.32Zm35.2,19.8,0.51-1.16L285.54,157.5,285,158.68Zm-0.74,2.82,0.54-1.32-33.6-14.45L285.56,162ZM493,446.58c5.66,2.53,13,1.79,16.23-1.45,1.29-1.31,1.94-2.81.4-4.75C505.58,446.28,499,445.19,493,446.58Zm1.72,168.89a10.73,10.73,0,0,0,1.54-5.57c0-4.31,0-8.62.12-12.93,0.06-2.1.42-4.18,0.6-6.28,0.05-.62,0-1.35-0.84-1.41s-0.94.66-.94,1.28C495.08,598.49,493.91,606.41,494.72,615.48Zm-267.19-483-0.46,1.25,32,13.64,0.48-1.12ZM490.79,639.93a21,21,0,0,0,8.6-3.7c1-.7,1.83-1.41,1.29-2.72s-1.88-1-2.91-.93C494.66,632.85,491.73,635.9,490.79,639.93Zm0.52-53.12c1-1.27,2.91,1.3,3-.55,0.12-1.64-1.89-1.73-3.6-2,0,4.91,0,9.6,0,14.29a1.81,1.81,0,0,0,1.62,2.1,0.67,0.67,0,0,0,.89-0.81C492.55,595.5,495.35,590.63,491.31,586.81ZM258.43,144.23c-3.12-3.71-25.13-12.69-27.62-11.85Zm239.34,42.4c-0.44,2.6-.31,4.16,1.88,3.84s4.88,0,5-3.17-2.78-2.79-4.61-3.17C497.18,183.53,497.91,186.06,497.77,186.63Zm-2.53,434,0.17,1c5.17-1,10.54-1.07,15.25-4,0.74-.45,2.11-0.75,1.1-2.13-0.55-.74.2-2.29-0.91-2.34a3,3,0,0,0-2.68,1.56c-1.71,3-4.79,4.06-7.95,4.81C498.58,620,496.91,620.31,495.24,620.66ZM236.12,130.2l-0.45,1,22.49,9.62,0.46-1.08C251.24,136.29,243.82,132.92,236.12,130.2Zm101.3,84.48a30.92,30.92,0,0,0,8.48,4.62c2.09,0.8,2.06-1.06,2.34-2.34s0.34-2.42-1.66-2.31C343.88,214.79,341.16,214.68,337.42,214.68ZM207.3,229.41c0.09-1.6.19-2.57,0.19-3.53,0-2.36,0-4.72,0-7.08,0-.94-0.18-1.72-1.25-2a1,1,0,0,0-1.16.64C204,219.29,205.24,227.32,207.3,229.41ZM160.74,631.09c4.13,0.25,7.74,2.91,11.79.74C169.07,627.93,165.47,627.63,160.74,631.09Zm46.8-415.48c0-3.94,0-7.12,0-10.3a1.72,1.72,0,0,0-1.14-1.73,0.92,0.92,0,0,0-1.16.6C204.05,206.2,205.09,213,207.54,215.61Zm160.9,68.19c1.45-.42,3.57-0.62,3.89-2.21s-1.9-1.4-3-2a40.16,40.16,0,0,0-3.71-1.66c-0.93-.42-1.37,0-1.54.87A4.43,4.43,0,0,0,368.44,283.8Zm172,319.53c-3.65-2.21-6.75-3.19-10.31-1.84a1.83,1.83,0,0,0-1.2,2.65,1,1,0,0,0,1.53.78C533.39,603.56,536.65,603.81,540.47,603.33ZM418,118.45a42.21,42.21,0,0,0-9-4.31C410.55,121,410.8,121.09,418,118.45Zm-160.5,18.9,0.58-1.37c-6-2.45-11.71-5.57-18-7.33l-0.41,1Zm-33,93.29c0,2.08,0,3.82,0,5.57,0,0.67.15,1.3,1,1.28s0.81-.77.82-1.37a40.75,40.75,0,0,0,0-5.22c-0.25-2.11.65-6.2-.7-5.94C223.14,225.42,225.11,228.9,224.47,230.64Zm-85.94-38.29c-3,.92-5.39,1.58-7.72,2.36-0.83.28-2.12,0.38-1.58,1.88s1.6,0.81,2.47.57c2.26-.63,4.5-1.32,6.71-2.08,0.65-.22,2.07,0,1.5-1.38C139.64,193,139,192.18,138.53,192.35Zm188.31,74.2c0.27-2.72.5-4.8,0.66-6.89,0.07-.86,0-1.74,0-2.6a1.62,1.62,0,0,0-1.47-1.81,1,1,0,0,0-1.12.72C324,257.73,325,264.44,326.84,266.55ZM326,249.76c0.19-2.82-2.22-2.75-3.79-3.29a1.41,1.41,0,0,0-1.68,1.83c0.45,1.81,1.06,3.86,3.25,4.07A2,2,0,0,0,326,249.76Zm0.13,30.42c0.35-4,1.39-8.11-.71-11.9C325,272.31,324,276.36,326.18,280.18ZM382,282.5c-5.62-2.46-11-5.49-17-6.93C368.84,278.47,379.35,282.75,382,282.5ZM490.76,607.7c0,1.5,0,3,0,4.49a1,1,0,0,0,.8,1.09,0.7,0.7,0,0,0,1-.72c0.22-2.86.46-5.71,0.62-8.57a1.39,1.39,0,0,0-1.35-1.49c-1.21-.17-1.05.75-1.07,1.45C490.73,605.21,490.75,606.46,490.76,607.7Zm1.9,40.1c1.49,0,3-.68,3.06-3.13,0-.95,0-2.46-1.44-1.88-1.72.68-4,1.14-4.27,3.59C489.83,647.92,491,647.81,492.66,647.8ZM346,262.87l-1.55.15c0,3.43,0,6.86,0,10.3a0.82,0.82,0,0,0,.84,1,1.05,1.05,0,0,0,.77-0.64C346.25,270,346.64,266.42,346,262.87Zm-1.55,26.42,1.2-.08a61.8,61.8,0,0,1,.53-11.12c0.1-.7.12-1.6-0.9-1.75-0.61-.09-0.83.41-0.83,0.95Q344.47,283.29,344.48,289.29Zm-5.14-41c1.41,0.41,3.45.29,3.53-.86,0.14-2-2-.87-3.17-1.26a0.63,0.63,0,0,0-.37,0c-1.5.48-4-2.2-4.34,0.29C334.63,249.08,337.76,247.75,339.33,248.25Zm33.19-136.93c-0.32-1-.33-2.82-2.27-2.28-1.38.39-4,.19-3.73,2.1,0.2,1.57,2.59,1.83,4.29,2C372,113.3,372.77,113,372.52,111.31ZM511.77,458c-3.22-1.88-5.9.77-9.73,0.52C506.14,461.79,508.88,459.33,511.77,458ZM344.8,239.9c-1.72,5.77-6.74,1-9.17,3.52C339.79,246.22,343.46,245.1,344.8,239.9ZM509,180.32c1.74-3.25,1.12-9.4-1.11-11.73-0.44-.46-0.9-1-1.52-0.45s-0.18,1.11.31,1.52c2.07,1.7,2,4,2,6.37C508.62,177.43,508.3,178.9,509,180.32Zm-9.7,459c4.63,1.07,6.85-.78,6.29-5.4-2.07,1.61-4.08,3.17-6.08,4.76A1.33,1.33,0,0,0,499.32,639.34Zm-2-181.24c-2-.78-7.39-0.4-2-4.27a1.05,1.05,0,0,0-.11-1,1.67,1.67,0,0,0-1.33-.27c-1.49,1-.92,2.69-1,4.08-0.05.94-.7,2.39,0.8,2.88A2.71,2.71,0,0,0,497.36,458.1Zm-163.2-208c2.45,3,5,2.82,7.59,2.41a1,1,0,0,0,.94-1,0.88,0.88,0,0,0-1-.76ZM256.92,132.94c-4-2.1-7.79-4.41-12.26-5.05A36.21,36.21,0,0,0,256.92,132.94Zm-49.38,54.2a6.1,6.1,0,0,0-2.68,5.64,1.67,1.67,0,0,0,1.65,1.65c1.48,0.2,1-1.08,1-1.78C207.6,191.06,207.54,189.47,207.54,187.14Zm119.45,52-0.85-.08c-0.73,1.54-1.43,3.1-2.22,4.62-0.3.58-.75,1,0.11,1.49a3.21,3.21,0,0,0,2.42.69c0.77-.22.51-1,0.53-1.59C327,242.56,327,240.85,327,239.14ZM432.27,124.9a19.83,19.83,0,0,0-8.61-3.72A12.45,12.45,0,0,0,432.27,124.9Zm83,329.64c3.25,2.74,5.86.8,8.79-.34C520.43,452.5,519.94,452.52,515.31,454.54ZM517.76,188c-4.83.14-7.43,1.38-10.34,4.77ZM502.31,616c-3.87.92-7.7,1.84-11.71,0.5C494.68,619,498.55,618,502.31,616Zm2.78-418.14c1.13-.25,2.76.19,2.87-1.59,0.05-.89-1-1-1.73-0.9-1.11.1-2.35,0.2-2.6,1.57S504.35,197.91,505.09,197.83Zm-7.91,264.82c-0.17-.89-0.49-1.55-1.47-1s-2.72-.24-2.72,1.77c0,1.12.46,1.62,1.59,1.34S497,464.12,497.18,462.64ZM215.67,205.84c-1.86-2.71-4-4.62-8.44-3.54Zm11.58-21,0.24,0.6c1.74-.4,3.49-0.78,5.22-1.22a1.1,1.1,0,0,0,.92-1.36c-0.25-.92-0.92-0.51-1.45-0.27C230.52,183.33,228.89,184.09,227.25,184.85Zm120.33,27.62c-4.46-.48-8.39.2-12.26-0.55A15.09,15.09,0,0,0,347.58,212.47ZM206.09,198c-0.18-.69.3-2.14-0.92-1.92-1.49.27-1.25,2.05-1.61,3.21-0.22.71,0,1.62,1.08,1.37C206,200.35,206.15,199.22,206.09,198Zm12.16,8.57c2,2.17,4.88,1.77,6.89,3.28a0.81,0.81,0,0,0,1.27-.27,0.89,0.89,0,0,0-.57-1.2C223.43,207.58,221.27,205.75,218.25,206.56ZM535.56,409.22l0.44,0.84,9.49-3.4A24.88,24.88,0,0,0,535.56,409.22ZM327.13,253.93l7.43,3.24C333.17,254.18,331,253.06,327.13,253.93Zm29-11.43c-1.9-1-3.28-.75-4.51.45a1,1,0,0,0,.15.94C353.41,244.65,354.62,243.81,356.09,242.5Zm-70.77-35.83c0.15,1.89-.91,3.75.81,5.21a0.82,0.82,0,0,0,1.18-.51c0.8-1.83-.28-3.24-1.11-4.69A3.35,3.35,0,0,0,285.32,206.67ZM510.38,452.54c-2,.36-3.81.14-5.21,1.52a0.76,0.76,0,0,0,.23.6c1.88,0.43,3.45-.35,5-1.32A2.81,2.81,0,0,0,510.38,452.54ZM321.6,664.83L329,668C327.4,665.74,325.32,664.53,321.6,664.83ZM249.39,126.12l-0.47.94,7.58,3.28C254.73,127.65,252.1,126.8,249.39,126.12ZM274,670.93c2.91-1.43,2.94-4.42,3.74-7Zm-4-28.52c-2.49-2.73-3.52-3.19-6.94-3.08A29.43,29.43,0,0,0,270,642.41Zm-67.91-27.77c-5.14-.38-5.14-0.38-7.34,2.29ZM317.6,694.83c2.39-2.3,1-4.17,0-6.7v6.7Zm187-66.49c-1.78-1.23-3-1.42-4.3-.4-0.4.31-.59,1.07-0.2,1.24C501.57,629.8,502.77,629,504.64,628.35Zm-171.12,69a7.56,7.56,0,0,0,3.47-6.6ZM242,685.85a1.76,1.76,0,0,0-.46.53,0.46,0.46,0,0,0,.55.64,1.59,1.59,0,0,0,.55-0.39ZM187.18,199.71l-0.13.2,0.2,0Z"/><path class="cls-1" d="M546.07,150.29c-2-.34-1.74-2.69-2.68-3.39a9.66,9.66,0,0,0-8.07-1.8,4.73,4.73,0,0,0-1.38.53c-0.92.56-2.44,0.67-2.55,1.89s1.45,1.18,2.25,1.42c1.21,0.37,1.36,1.8,2.51,2.07a14.72,14.72,0,0,0-11-.69c-2.69.92-5.36,2.47-8.43,1.9l0,0.08a29.15,29.15,0,0,0,13.43-8.54c1.48-1.63,3.94-2.38,6-3.53,5.47,0.42,8.45,4.56,11.79,8.16C547.38,148.86,545.8,148.7,546.07,150.29Z"/><path class="cls-1" d="M112,144.72c0.31,0.44-1.2.86,0.23,1.55,2.21,1.06,4.84,1.54,6.39,3.76-1.37.52-2.32-.44-3.4-1-2.21-1.08-4.59-2.55-7-1.78A10.41,10.41,0,0,1,99,146.21L99,146.29c5.92-3,12.44-4.08,18.86-5.5L101.52,146C105.86,147.36,108.75,144.67,112,144.72Z"/><path class="cls-1" d="M147.63,150.24c-1.13-6.38-10.72-12-17.68-10.31l-3.2.75a3.5,3.5,0,0,1-.62-1.65c0.18-.67.71-0.09,1.11,0.07a2.29,2.29,0,0,0,1.37.24c8.19-2.7,13.69,1.63,18.73,7.13,1.11,1.21,1.83,2.49,3.93,2.76s2.92,2.4,2.49,4.64l0.08-.11C152.5,151.32,151.06,149,147.63,150.24Z"/><path class="cls-1" d="M487.49,128.4c0-3,3.43-2.69,4.5-4.65,2.65,0.29,5.51-1.53,8,.78A17.44,17.44,0,0,0,487.49,128.4Z"/><path class="cls-1" d="M97.33,171.36c-1.22-6.19-.66-12,3.21-17.29-0.47,5-2.77,9.68-2.08,14.9,1.28,9.64,4.31,18.3,12.44,24.4a10.9,10.9,0,0,0,10.52,1.79,3.57,3.57,0,0,1,2.52,0l-0.09-.08c-3.73,3.11-8.25,3.22-12.94.45-2.92-1.73-4.83-4.55-7.45-6.6l0.11,0.14L99,180C98.73,177.1,96.87,174.46,97.33,171.36Z"/><path class="cls-1" d="M121.09,156.73c2.72,0.08,2.9,2.72,4.15,4.23a27.94,27.94,0,0,1,2.41,4.12c0.24,2.45,2.31,4.37,2,7a15.18,15.18,0,0,1-.29,7C128.36,170.92,125.91,163.38,121.09,156.73Z"/><path class="cls-1" d="M498.78,166.49c-2.85-.29-5.77.46-8.58-0.54-2.68.48-4.5-.33-4.9-3.27a15.52,15.52,0,0,0,10.95,2.49,5.62,5.62,0,0,1,2.5.52Z"/><path class="cls-1" d="M500.28,170.94l-2.32.18a1.75,1.75,0,0,0,0-.2l-0.13.12a1.44,1.44,0,0,1-.75,1.84c-1,.56-0.54-1.18-1.4-1.08a2.6,2.6,0,0,1,3-2.47Z"/><path class="cls-1" d="M127.56,157.56c-2.3.79-4,.25-5.08-2.08-1-2.08-3.83-2.84-4-5.54a2.67,2.67,0,0,1,.92.59c3.67,6,8.62,6.23,14.37,3.33a5.81,5.81,0,0,1,2.19-.13C133.57,155.9,129.78,155,127.56,157.56Z"/><path class="cls-1" d="M315.89,629.93c-3.72-.78-6.24-3.47-9.83-3.81a5.41,5.41,0,0,1-4.72-3.17c-0.82-1.84-3,0-4.49-1.4-2-1.81-5.11-1.68-7.69-3-2.12-1.09-4.46-3-7.29-3-3.43-.06-3.19-3.22-4.14-5.32-1.22,0-.83,1.06-1.1,1.65a1.09,1.09,0,0,1-1,.91,1.1,1.1,0,0,1-1.09-1.24c0-2-.06-4,0-6,0-.86.14-1.79,1.35-1.89a3.49,3.49,0,0,1,2.6,1.31c1.06,1-.13,1.16-0.73,1.77-1.09,1.1.6,1.16,0.95,1.27,3.57,1.09,7.1,2.18,10.12,4.56,1.16,0.92,2.57,0,3.49-.58s1.86-1.23,2-.31c0.85,5.09,5.4,4.58,8.63,6,1.17,0.53,1.09.47,0.18,2.19-0.57,1.08.19,2.09,0.76,3.86,1.23-2.72,1-6,4.75-5.79,0.05,3.72,3.66,3.92,6.12,4.77s3,1.5,1.75,3.74C316,627.39,316.09,628.63,315.89,629.93Z"/><path class="cls-1" d="M254.5,397.13c-0.13,4.77-5.3,10-9.72,9.87-5.55-.19-11.91-8-11.55-14.1,0.25-4.37,5.64-9.83,9.65-9.77C248.31,383.19,254.67,390.86,254.5,397.13Zm-8.25-.4a8.73,8.73,0,0,0-5.11-8.2,3,3,0,0,0-4.22,1.49c-2.2,4-.93,9.82,2.75,12.32a3.84,3.84,0,0,0,6-2A22.86,22.86,0,0,0,246.25,396.73Zm6.27-1.62c-0.62-1.68-1.44-3.62-2-5.63-0.52-1.76-1.4-1.6-2.81-1.09s-1.75,1.09-1.2,2.46c0.73,1.83,1.38,3.71,1.93,5.61,0.37,1.27.93,1.47,2.16,1.07S252.8,397,252.52,395.11Zm-4.93-8.62c-2.33-.95-4.24-2.5-6.94-0.87C243,386.87,244.93,388.6,247.59,386.48Z"/><path class="cls-1" d="M232.38,449.55c0.13-4.7,5.49-10.13,9.78-9.91,5.39,0.28,11.3,7.33,11.38,13.58,0.06,4.81-5.14,10.41-9.43,10.15C237.93,463,232.19,456.24,232.38,449.55Zm12.84,4.81a10.06,10.06,0,0,0-3.48-8.53c-2.1-1.84-4.83-1.41-6,1.1a9.64,9.64,0,0,0,.66,9.24c1.2,2.1,2.73,4.07,5.62,3.26A4.11,4.11,0,0,0,245.22,454.36Zm3.84-.14c0.91-.78,3.83,0,2.32-3.06a34.81,34.81,0,0,1-1.8-5.21c-0.41-1.33-1-1.57-2.44-1.21-1.62.42-2,1.21-1.59,2.62,0.6,1.86,1.31,3.69,2,5.53C247.76,453.55,247.79,454.43,249.05,454.22Zm-9.49-12.08c2.31,1.06,4.17,2.73,6.95.91C244.22,442,242.46,440.25,239.56,442.14Z"/><path class="cls-1" d="M243.56,326.77c4.28,0,8.18,3.13,9.84,7,1.92,4.46,2.58,8.58-.45,12.9-1.71,2.43-5.55,4.26-8.54,3.65-9.58-1.93-12.38-14.45-6.69-21.25C239.24,327.2,241.69,327.28,243.56,326.77Zm-6.86,10.63c0.46,2.84.82,5.39,2.71,7.43,2.54,2.75,5.72,2.25,7.28-1.22,1.36-3,.35-5.73-1.11-8.35-1.2-2.16-2.91-4-5.55-3.51C236.92,332.37,237.5,335.57,236.7,337.41Zm16.94,1.79c-0.78-2.18-1.58-4.35-2.35-6.54-0.55-1.56-1.77-1.1-2.77-.79-1.17.35-1.76,1-1.07,2.46a58.41,58.41,0,0,1,1.91,5.56c0.48,1.37,1.58,1.47,2.71,1C252.75,340.62,253.94,340.57,253.64,339.2Zm-5.13-9c-4.29-2.11-4.29-2.11-7.17-1.1C245.16,331.08,245.16,331.08,248.52,330.16Z"/><path class="cls-1" d="M323.7,628.57c-1.36.41-.9,1.31-1,2-0.13.92,0.21,2.35-1.3,2.1-1.08-.18-2.39-0.57-2.5-2.25-0.14-2.21.87-4.39,0.08-6.62a0.92,0.92,0,0,1,.73-1.11,0.9,0.9,0,0,1,1.18.59c0,2.05,1.73,2.33,3,3.21,2.27,1.53,2,4,1.78,6.37,0,0.62-.14,1.35-1,1.2s-0.73-.84-0.85-1.46C323.61,631.28,324.84,630,323.7,628.57Z"/><path class="cls-1" d="M374.46,688c-2.43-.65-3.17-2.51-3.35-4.74-0.14-1.8-.07-3.69,2.14-4.1,2-.37,3.19,1,3.95,2.7,1.51,3.33.23,6-2.83,6,2.26-1.14,2.47-2.73,1-4.66-0.51-.67-1.18-1.8-2-0.89-1.56,1.7-.07,3.16.81,4.61A4.1,4.1,0,0,1,374.46,688Z"/><path class="cls-1" d="M379.51,455.35c-2.5.77-3.16-1.19-4-2.76a4.55,4.55,0,0,1,.06-4.93,2.29,2.29,0,0,1,2.86-1.13,5.68,5.68,0,0,1,3.35,4.6c0.37,2,0,3.72-2.34,4.32a9,9,0,0,0,.95-1.91c0.39-1.68-1.06-2.61-1.82-3.78A1,1,0,0,0,377,450a3,3,0,0,0,.59,3.7A17.8,17.8,0,0,0,379.51,455.35Z"/><path class="cls-1" d="M223.45,544.25c-3.63-1.69-4.92-5.06-3.27-7.28,1.11-1.5,2.48-1.91,4.1-.54,2.52,2.14,2.78,5.46.21,8.13a3.78,3.78,0,0,0-.12-3.69c-0.61-1-.64-2.88-2.25-2.08-1.42.7-.93,2.36-0.16,3.59A19.4,19.4,0,0,0,223.45,544.25Z"/><path class="cls-1" d="M227.72,463.92c-0.29,1.57-.47,3.58-2.63,3.39-3.06-.27-4-2.65-4-5.35,0-1.81.25-3.94,2.63-3.59C226.58,458.8,227.43,461.28,227.72,463.92Zm-2.91,2.25c0.75-.25,1.61-0.83,1.37-1.48-0.51-1.38-.69-3.26-2.46-3.66a1.19,1.19,0,0,0-1.26,1.71C222.88,464.14,223.15,465.62,224.82,466.17Z"/><path class="cls-1" d="M222.1,384.23c0.24-1.6.64-3.72,2.79-3.57,2.8,0.2,3.73,2.62,4,5.11,0.21,2-.32,4.27-2.62,4.13C223.28,389.73,222.61,386.94,222.1,384.23Zm5.94,2.18c-1-.86-1.32-2.6-3-2.86a1.16,1.16,0,0,0-1.26,1.43c0.19,1.45.52,3,2.22,3.4C227.28,388.69,227.56,387.53,228,386.41Z"/><path class="cls-1" d="M383,374.78c-0.35,1.52-.53,3.54-2.7,3.3-3-.34-3.93-2.65-4-5.38,0-1.9.45-4,2.68-3.58C381.81,369.6,382.55,372.24,383,374.78Zm-1.43.46c-1.06-.93-0.56-3.16-2.58-3.42a1.15,1.15,0,0,0-1.18,1.49c0.23,1.57.49,3.26,2.39,3.6C380.94,377,381.42,376.19,381.61,375.25Z"/><path class="cls-1" d="M378.84,532.57c-3.22,1.75-3.86-1-4.84-2.89-1.13-2.15-.71-4.43,1.48-5.38s3.57,0.9,4.32,2.9,1.39,4.07-1.08,5.48a6.27,6.27,0,0,1,.13-1.83c0.74-1.92-1.14-2.66-1.77-3.94-0.2-.41-1.28,0-1.57.52-0.81,1.59.05,2.83,1,4A4.4,4.4,0,0,0,378.84,532.57Z"/><path class="cls-1" d="M384.19,296.81c0.09,1.94-.5,3.55-2.54,3.94-1.89.35-4.24-3-4.16-5.75,0.06-2,1.18-3.66,3-3.42C383.24,291.93,384.07,294.29,384.19,296.81ZM381,294.24c-1.35.06-2.11,0.6-1.9,1.6,0.29,1.39.49,3.08,2.33,3.37a1.56,1.56,0,0,0,1.71-1.58C383.28,295.87,381.3,295.52,381,294.24Z"/><path class="cls-1" d="M229.88,307.69c-1.65-.92-2.34-2.64-4-1.61a2,2,0,0,0-.71,2.34,3.51,3.51,0,0,0,3.91,3c-2.91,1.48-4.28-.22-5.26-2.58s-0.79-4.94,1.68-5.66S229.37,304.52,229.88,307.69Z"/><path class="cls-1" d="M375.12,610a2.75,2.75,0,0,1-2.27-2.2c-0.7-2-1.2-4.22.8-5.8,1.34-1.06,2.7,0,3.57.9,1.57,1.59,2.89,3.46.74,5.65,0.57-2-1.43-2.8-2.19-4.16-0.23-.41-1.24-0.09-1.59.45-1,1.55.26,2.75,0.74,4.08A6.82,6.82,0,0,1,375.12,610Z"/><path class="cls-1" d="M274,179.82c0.18,2.88-1.61,2-2.79,1.23a6,6,0,0,1-2.67-5.39,3,3,0,0,1,2.13-3.15,3.12,3.12,0,0,1,3.48,1.57c1.11,2,2.62,4-.29,5.86,0-.86,0-1.73,0-2.6s-0.15-2.11-1.47-2.21a2.28,2.28,0,0,0-1.66.55c-0.76.82-.5,1.8,0,2.77A2.32,2.32,0,0,0,274,179.82Z"/><path class="cls-1" d="M326.28,200.35c0.07,2-.66,3.63-2.55,3.33-2.86-.46-3.84-3-4.07-5.55-0.15-1.71.67-3.63,2.44-3.65,2.79,0,3.66,2.28,4.35,5-1.92-.54-2.7-4.19-4.87-1.57-1,1.22,0,2.68.88,3.68C324.37,203.87,324.86,200.89,326.28,200.35Z"/><path class="cls-1" d="M278.32,190.56c-4-1.38-8.08-2.53-11.39-5.34C271.2,186,275.41,186.88,278.32,190.56Z"/><path class="cls-1" d="M279.85,216.81c-1.76.54-3.05-.62-4.5-1.23-3.59-1.51-7.18-2.6-10.8,0a3.16,3.16,0,0,1-2.47.51c2.8-3.27,6.52-3.87,10.34-2.89C275.06,213.82,277.79,214.75,279.85,216.81Z"/><path class="cls-1" d="M385.69,219.34c-0.35,1.64-.35,3.59-2.74,3.7-2.1.09-4.46-3-4.24-5.68,0.15-1.77.74-3.88,2.89-3.52C384.35,214.28,385.41,216.65,385.69,219.34Zm-1.3.75c-1.43-.59-0.26-3.32-2.37-3.51-1.33-.12-1.82,1.22-1.52,2.4,0.35,1.39.75,3,2.74,2.77A1.16,1.16,0,0,0,384.39,220.09Z"/><path class="cls-1" d="M123.95,195.16a2.1,2.1,0,0,1-.2-1c3.63-3.88,4.59-8.84,5.44-14.65a14.57,14.57,0,0,1-5.33,15.59Z"/><path class="cls-1" d="M107.23,150.44c-0.14-1.32.79-1.35,1.68-1.36,4.76,0,8.64,1.61,11.16,5.85-3-1.13-5.14-3.79-8.48-4.36A9.53,9.53,0,0,0,107.23,150.44Z"/><path class="cls-1" d="M504.74,409.48c-2.79,2.91-6.3,1.54-9.47,2.21l-0.17-1,9.71-1.1Z"/><path class="cls-1" d="M243.2,399.7c-0.64,1.91-1.89,1.2-2.92.56-2-1.23-3.35-5.92-2.46-8.06,0.42-1,1.09-1.75,2.24-1.56a4.58,4.58,0,0,1,3.65,3.79c0.42,1.76,2.39,4-.64,5.39,0-.72.06-1.45,0-2.17-0.09-1.28.32-2.87-1.5-3.29a1.6,1.6,0,0,0-2,1.13,3.21,3.21,0,0,0,1.56,3.78A6.56,6.56,0,0,0,243.2,399.7Z"/><path class="cls-1" d="M239.86,456.25c-2.69-1.54-4.18-5.43-2.9-7.86,1.12-2.11,2.73-1.45,4-.29a7.37,7.37,0,0,1,2.11,7.56c-0.52,2.12-2,2.37-3.37.47a3.61,3.61,0,0,0,1.44-.19c1.8-1.16,1.11-2.83.59-4.27a1.68,1.68,0,0,0-2.49-.86c-2.09.93-.64,2.31-0.4,3.47A8.19,8.19,0,0,0,239.86,456.25Z"/><path class="cls-1" d="M244.69,339.15c1.49,2,1.14,4.07-.85,5s-3.35-1-4.4-2.59a3.9,3.9,0,0,1-.19-0.71c-0.91-2.35-2.07-5.5.85-6.43s4.32,2,4.7,4.84a1.61,1.61,0,0,1-.69-0.25c-0.85-1.1-1.81-1.76-3.13-.77-1,.73-0.84,1.68-0.42,2.68s1.24,2.33,2.26,2.22c1.41-.16,1.4-1.72,1.49-2.94A3.82,3.82,0,0,1,244.69,339.15Z"/></svg>