<svg id="Layer_1" data-name="Layer 1" xmlns="http://www.w3.org/2000/svg" viewBox="0 0 870.4 1338.85"><defs><style>.cls-1{fill:#fff;}</style></defs><title>troubleshoot</title><path class="cls-1" d="M877,642.58c7.57-.2,10.32,6,13.19,11a60.25,60.25,0,0,1,7.92,27.56c0.86,20.59,1.82,41.18,2,61.79,0.08,7.66,2.54,9.17,9.72,8,41.88-6.63,83.75-13.38,125.76-19.05,25.82-3.48,51.48-8,77.32-11.14,8.93-1.1,11.78-5.41,11.74-13.71-0.13-31.15-6.07-60.56-24.78-86.35a7.27,7.27,0,0,1-.68-2.35c2.24-1.5,2.95.56,3.56,1.51,26.79,41.81,33.29,86.13,14.62,132.71-6.27,15.63-18.8,24.11-36.62,25.14-14.76.85-29.38,4.06-44.1,5.94-5.32.68-6.81,3.07-6.7,8.37,1.12,54.57,1.93,109.14,2.94,163.71,1,53.36,1.85,106.72,3.27,160.06,0.92,34.53,2.77,69,4.11,103.55,0.1,2.65,1.76,5.33.16,8-4.57,7.55-1.54,11.7,6.74,13.52-6.44,3.41-4.45,6.64-.18,11.66-0.25-9.18,2.32-15.06,10.24-17.16,6.56-1.74,11.4,2,13.78,8.11,3.48,8.84,5.86,17.52,4.24,27-0.13.76,0.2,2.12,0.72,2.38,5.33,2.62,12,1.73,16.55,6.55,6.12,6.47,9.61-.39,14.53-2.5a47.94,47.94,0,0,1,23.69-3.73l-0.09-.23c-1.38,4.17-5.86,1-8.25,3.34,9.11,8.65,15.08,18.62,16.16,31.3,0.3,3.49.75,8.75,6.56,7.74,8.3-1.45,17.72.57,24.19-6.94,0.62-.72-0.66-2.85-0.57-4.29,0.52-8.39-5.22-15.23-5.63-23.36l0.64-.64c10.68,16.47,13.44,33.79,5.26,52.1-2.75,6.16-7.27,9.89-14.53,10.64-10.23,1.05-20.36,3.08-30.55,4.53-2.36.33-5.3,0.86-7.15-.18-11.78-6.62-25.18-3.35-33.91,1.86-13.12,7.84-26.76,7.34-40.22,10-12.5,2.5-18.47-.7-25.21-12-2.29-3.83-4.07-8-6.14-12.07-0.45,5.75-.07,11.6-2.22,17.16-3.56,9.22-9.28,15-19.95,15.5-9,.46-17.86,2.41-26.8,3.59-2.07.27-4.68,0.94-6.21,0-11.32-6.69-22.42.44-33.59,0.2a3.76,3.76,0,0,0-2.53.64c-13.14,13.69-31.34,7.74-46.91,11.93-5.78,1.55-10.13-3.3-13.76-7.34a36,36,0,0,1-8.07-14.41c-3.66,5.92-3,11.78-5.45,16.76-3.7,7.64-9,11.47-17.36,12.4-10.11,1.12-20.13,3.07-30.18,4.79-1.87.32-3.55,0.55-5.19-.61-5.76-4.07-12.24-2.42-18.48-2.13-14.68.68-29.35,3-43.88-1.9-5.08-1.71-8.8-4.22-13-7.54a35,35,0,0,0-22.8-6.61c-8.11.75-15.13-1.42-21.54-4.15-5.05-2.15-9.4-3.36-14.27-2-16.49,4.59-32.08.24-47.87-3.84-45-11.63-90.13-23-135.18-34.48-4.74-1.21-10.73-1.46-9.7-9.09,0.37-2.73-1.25-3.36-3.77-3.75-7.33-1.12-14.51-3.37-22-.25-7.62,3.2-14.69-.91-21.95-2.3-0.85-.16-2.2-0.64-2.34-1.22-4-16.4-19.06-11.51-29.25-13.83-9.28-2.11-20.22-2.06-27.74-6.79A123.15,123.15,0,0,0,338,1285.37c-18.29-7.15-23.31-43.93-8.79-57.19,4-3.63,8.38-3.17,12.31-4.07,13.88-3.17,26-13.12,41.19-11l-0.09-.23c-0.77,4-5.48.9-7,3.62,10.58,11.66,21.92,15.73,43.17,15.48l-5.5-13.22,0.66-.54c6.3,2.1,5.24,9.61,9.91,14,1.15-6.34,1.6-12.05,4.4-17,3.37-6,7-10.38,15.39-10.84,6-.33,12.46-3.1,18.81-4.52,3.16-.71,1.61-4.13,1.57-6.29q-1.68-90.5-3.54-181Q458,895.28,455.53,778q-3.39-164.16-6.63-328.32c-0.48-25.42-.07-50.86-0.07-77.55-8.71,4.33-17.79-1.37-24.29,7.87-2.57,3.65-11.06,1.11-16.79-.11a2.55,2.55,0,0,1-1.56-1.84c3.17-11.73-6.93-9.79-12.57-11.84-4.2-1.52-5.54-3.84-5.63-8-0.4-19.39-1-38.78-1.57-58.16-0.13-4.23,0-8.14,5.68-9.13a28,28,0,0,0-4-1.11c-8.68-1.15-12.24-5.76-11-14.63,1.23-8.59.65-15-11.76-13.35-6.68.88-16.11-.79-20.58-5.14-10.46-10.16-28.23-7.78-35.52-22.73-6-12.35-7.85-24.74-3.27-37.57,4.41-12.35,15.49-15.79,26.25-8.88,1.1-8.31,11.26-13.29,28.93-14.17-2.07,5.38,2.39,12.1,10.13,13.85,7.44,1.68,14.32,3.61,19.85,9.5,2,2.11,5.93,2.47,9.05,3.38,1.55,0.45,2.85-.13,3.24-2.08,1.67-8.49-12.23-25.15-21.16-25.77-7.23-.5-14.11,3.44-21.39,1.37,7.31-1.53,14.57-3.84,22-4.39,8.39-.63,18.76,8.38,21.14,19.65,2.12,10,6.63,13.45,16.48,12.27,6-.72,11.94.13,15.64,6.59,0.48,0.84,7.38,9.3,9.07-1.37,0.35-2.24,3.64-1.43,5.64-1.73,17.31-2.65,34.63-5.27,51.76-7.88-6.3-25.56-12.89-50.95-18.76-76.5-4.37-19,4.6-32.41,23.68-35.33,46.3-7.07,92.68-13.67,139-20.49q20.63-3,41.24-6.24c10.06-1.59,19.61,1.46,28.33,5.17,9.75,4.15,11.51,14,10.69,24.73,5.74-1.44,10.84-3.89,16.31-2.39-2.49.9-4.89,2.13-7.43,2.64-8,1.62-11.76,6.23-10.69,14.48-3.1,9-1.85,10.92,6.71,13,6,1.49,8.56-2.23,11.46-6,0.12,1.19.7,2.58,0.28,3.55-3.94,9.18,1.26,9.6,8.07,8.62,8.62-1.24,17.26-2.44,25.88-3.69,12.49-1.82,25-3.72,37.46-5.48,4.56-.64,6.52-3.38,5.63-7.53-1-4.83-4.19-4.47-7.38-1.85-3,2.45-5,.05-7.29-1.15a42.82,42.82,0,0,0-19.07-4.72c-12.46-.41-21.9,7-32.51,11.45,5.63-8.37,14.91-11.47,25-15.88-13.21-3.42-24.61-6.28-36.35-7.51,4-3.74,8.82-1.65,12.82-.94,15.41,2.73,30.68,6.23,46,9.64,2.6,0.58,5.12.91,6.55,4.67s2.36-.72,3.68-1.35c4.22-2,13.28,4,12.4,8.69-1.15,6.21,1.8,5.82,5.58,5.25,13.45-2,26.93-3.91,40.3-6.4,10.54-2,20.25,1.47,29.39,5.08,8.51,3.37,12,11.8,10.83,21.12-1.11,8.91-2.79,17.75-4.38,26.59-0.46,2.54-1.25,3.29,2.74,4.24,33.83,8.07,67.44,17.09,101.25,25.27,6.47,1.56,8.32,4.35,8,10.49-0.36,7.26.15,14.55,0.12,21.83,0,4.05.23,5.86,5.8,5.89,15.27,0.08,29.72,4.59,43,12.13,3.76,2.13,6.16,1.86,9.55-1,8.87-7.55,16.57-6.58,24.33,2.07,5.86,6.53,8.43,14.52,10.53,22.75,3.21,12.56,3.19,12.57,16.25,10.09,17.23-3.27,17.38-3.88,12.29-21-2-6.69-6.63-11.86-9.83-18.93,11.91,7.65,19.07,27.37,16.43,43.76-2.49,15.45-7.66,26.22-26.51,25.78-7.45-.17-14.94,1.82-22.42,2.78-2.06.27-4.65,1.25-6.14,0.41-10.35-5.85-20.51-.51-30.75-0.06-5,.22-7.44,3-9.66,6.67,3,2.62,6.26-.14,10.1,1.9-10,.5-8.46,6.63-7.49,12.51a27,27,0,0,0,.93,5.37c1.51,3.9-2.6,11.55,5.47,11,6.23-.44,15.23-0.06,13.46-11.26-0.38-2.42,1.31-5.32,3.28-3.73,6.53,5.28,14.72,2.19,18.34-.49,4.49-3.32,8.68-2.61,12.85-4,6.38-2.16,8,3.8,9.24,7.09,0.84,2.25-2.73,5.75-6.83,6.27-5.39.68-10.68,2.42-16.07,2.7-9.84.51-17.88,2-19.66,14.25-0.75,5.18-6,8.66-11.72,8.24-8.57-.62-10.86,4.46-10.1,11.16,1.1,9.68-3,12.09-12.09,13.07-19.58,2.09-19.27,2.75-18.84,22.62,1.29,59.44,2.36,118.88,3.59,178.32,0.12,6,.72,11.93,1.1,17.94-4.56.68-4.14,0.69-4-4.57,0.18-10-.08-20-0.35-30-0.15-5.75-.91-11.49-1-17.25-0.78-51.24-1.44-102.49-2.25-153.73,0-3.06,1.84-8.08-2.37-8.66-4.83-.67-10.16.63-15,2.07-2.46.73,0.15,3,.68,4.49,2.65,7.35,0,15.24-6.23,16.21-7.62,1.19-10.48-3.24-11.65-10.43-1.1-6.71-9.47-5.24-13.18-9.54-0.8-.93-2.82-1-4.31-1.11-19.2-1.77-21.23-7.63-20.8-25.35,0.25-10.26-.88-20.55-1-30.83-0.05-6.18-3.46-7.54-8.21-6a16.25,16.25,0,0,1-13-1.11c-7.17-3.55-14.33,0-20.75,2.05-17,5.39-33.85,10.73-51.77,12.17-3.66.29-7,1.19-10.52-.58-2.48-1.25-5.09-2.31-6.56,1.69-0.73,2-2.86,2.33-4.6,1.38-2.21-1.2-.7-3-0.46-4.73,0.58-4.25.53-8.32-5.7-7.91-1.68.11-1.93,1.14-2.16,2.31-0.19,1,.24,1.88,1.32,1.72,1.91-.29,4.6-2.15,4.27,1.84-0.22,2.63-2.65,4-4.89,4.91-13.15,5.06-26.95,7.25-40.69,10.07-10.81,2.22-20.6-2.85-30.88-.87a170.59,170.59,0,0,0-22.08,5.47c10.7-.36,18.16,4.07,23,13.14,1.31,2.43,3.66,1.36,5.73,1.11,9-1.11,18-1.63,26.87-3.41,6.43-1.3,7.91,3.56,10,6.89,3,4.71-2,6.45-4.94,7.76-9,4-18.89,3.85-28.39,5.53-3.78.67-5.61,1.5-6.46,5.75-1.71,8.58-6.27,15-16.2,15.43-5.64.24-7.39,3.17-7.33,8.86C731,430.65,728,433,716,434.52c-12.23,1.5-24.49,3.12-36.56,5.56-6.47,1.31-12.13,5.77-19.31,5.19-2.85-.23-6.11-0.08-7.28-2.64-3.14-6.9-7.22-11.78-15.27-13.43-3.59-.74-4.05-5.66-4.08-9.34q-0.17-29.12-.13-58.24c0-1.74.11-3.86,1.06-5.16,4.56-6.23,3.71-12.14-3.77-15.45-4.7-2.09-6.58-4.69-6.44-9.41,0.06-2.12.32-4.88-2.77-4.51-2.39.28-1.48,2.93-1.48,4.57,0,19.72-.59,39.47.43,59.14,0.74,14.25,1.4,28.47,1.31,42.72-0.27,45.19,1.63,90.35,2.3,135.53,0.9,60.63,2.39,121.26,3.54,181.89q1.75,91.85,3.64,183.7,1.77,89.58,3.62,179.15c1.14,60,3.19,120,3.49,180.07,0,2-1.65,5.35,2.27,5.78,3,0.34,7.5.19,8.07-2.62,1.36-6.62,5.83-7.14,10.95-8.39,2-.5,5.71-0.86,6.23-4.22,0.58-3.68-3-3-4.84-4.24a9,9,0,0,1-4.1-7.64c-0.63-19.38-2.4-38.73-1.69-58.15,0.09-2.35-.32-4.77,1.51-6.88,4.52-5.22,28.28-10.73,34.94-7.9a45.81,45.81,0,0,0,14,3.6c4.62,0.41,9.82.82,10.61,6.39,0.86,6-5.53,4.86-10.8,7.54,8.33,0.64,11.11-3.33,13.08-9.37,5.53,7,2.93,14.45,4.58,21,1.85,7.31,4.35,9,12,7.18,8.44-2,17.77-1.33,25.64-3.91,10-3.29,22.69,1,30.31-9.62a2.78,2.78,0,0,1,4-.73c9.49,6.49,17.76,4.42,25.26-3.49a12.86,12.86,0,0,1,2.15-1.5c3,7.62,9.61,1.92,14,3.85,3.93,1.72,5.07,5.37,4.22,9.87s-3.86,9.08-7.28,7.26c-7.18-3.82-11.93,1.72-17.55,2.82-6.63,1.3-10.56.53-12.71-7.09l-4.28,9c-2.6-1.81-1.56-4.16-2-6.13a32.35,32.35,0,0,1-.64,5c-1.22,4.28-5.09,2.1-7.72,2.84s-3.77-1.07-4-3.57c-0.14-1.7-.42-3.4-0.7-5.57-4.47,2.84,1.25,11-5.9,10.59-4.51-.25-7.83,4-13,1.56-4.29-2.08-8.18,3.85-14.32,1.81-7-2.33-7.59-.6-8.68-8.39-2,.15-2.54,2.13-2.47,3.22,0.48,7.23-5.25,9-9.91,9.47-6.86.62-5.93,4.22-5.39,8.67,1.1,9,3.38,18.44-7.89,24.27,5.6,2.43,10,3.84,15.59,1,13.35-6.73,23.79-1,26,13.78a54.6,54.6,0,0,1,.24,8.17c0,11.61,2.87,15.8,13.64,19.25,4.82,1.55,7.59-1.17,8.71-5.45a16.38,16.38,0,0,0,.07-7.23c-3.32-16.05,4.1-26.87,16.23-36.2,5-3.86,9.23-4.84,14.79-2.34,9.64,4.34,19.6,8,29,12.82,10.36,5.28,12.79,15.22,12.41,26.45,4.36-1.66,6.3-5.92,10.58-5.92,8.09-.65,13.6,3.59,17.93,9.71a51.19,51.19,0,0,1,9.44,23.09c0.91,7.22,3.17,10.78,10.94,8.56,2.29-.65,4.8-0.52,7.2-0.85,14.41-2,14.56-2.24,11.52-16.27-3.89-18-11.36-24.41-28.88-24.91-0.91,0-2.39.34-2.44-1.62,7.16-1,11.26-6.72,17.15-10.2-11.14-3.86-21.12-3.85-31,2.08-4.75,2.83-6.36,8.76-11.84,10.43,3.07-12.33,19-22.77,31.95-19.26,12.68,3.44,26.34,4.54,37.42,12.86a5,5,0,0,0,6.65-.28c1.61-1.37,3.32-2.83,2.22-5.37-3.68-8.52-.68-18.56-8.39-26.65-6.4-6.7-2.86-25.55,3.9-33.32-3.43-2.81-7,.16-10.39-0.28-2.32-.3-5.75-0.83-6.61-2.39-9.7-17.75-24-6.54-36.38-5.78-3.14.19-5.92,2.05-9.45,0.34s-5.48,1.24-6.77,4.12c-0.82,1.83-1.79,3.3-4,2.66-2.72-.79-1.42-3-1.14-4.55,1-5.66-1.61-8.32-6.86-9.49-2.19-.49-3.49.65-4.85,1.72a2.51,2.51,0,0,0-.52,2.35c1.07,2.12,3.14,1.76,4.72,1,2.08-1,4.23-2.12,5.29.61s-1.23,4.41-3.45,5.57c-4.45,2.34-7.91.58-9.74-3.46-2.2-4.87-1.48-9.68,3.53-12.63a10.81,10.81,0,0,1,6.15-1.08c11.2,1.06,20.84-2.51,29.53-9.32,1.71-1.34,3-.09,4.74.63,7.85,3.27,15.24-.75,17.62-9,2-6.94,6.9-11.14,13.92-11.76,8.27-.73,9.85-5.15,8.62-12.27-1.12-6.46-.38-9.59,7.87-6.44,9.95,3.79,20.65,5.6,31.27,7.37-11-6.1-24-6.06-35.52-11.93,6.42-4,13.56-3.74,20.18-5.43,12.74-3.25,26.3-3.33,38.09-10.5,5.21-3.17,10.49-1.17,16.19,1.48,6.61,3.07,14.37,4.15,21.75,4.86,4,0.38,2.43-4.18,2.39-6.49-0.39-19.69-1.22-39.38-1.53-59.08-0.79-49.41-.55-98.86-2.27-148.23-1.69-48.48-1.65-97-3.16-145.46-0.22-7.23-2.62-9-9.11-8-29.58,4.55-59.17,9-88.76,13.46-6,.91-11.92,2.09-17.93,2.76-7.43.82-14.51,1.37-19.08,9-2.72,4.54-7.75,6.45-13.44,5.85-5.86-.62-11.3-0.19-15.16,5.57a10.22,10.22,0,0,1-6.84,4.06c-8.88.56-9.38,5.86-9,12.91,0.53,8.76.21,17.58,0.11,26.38,0,3.15-.11,6,4.26,6,1.66-3.34-5.17-3-2.48-6.3,0.53-.64,2.46-0.76,3.39-0.34,3.23,1.46,7.18,2.53,7.37,7,0.25,6.06.74,12.18,0.15,18.18-1,9.86,3.68,20.29-3.52,29.68-1.65,2.14-.9,5.9,4.25,6.89,4.59,0.89,8.27,5.21,13.94,3.5,2.09-.63,4.09-0.23,4.49-3.09,0.26-1.88,1.15-3.74,3.26-3.79,2.8-.06,3.51,2.67,3.53,4.5,0.06,5.29-.44,10.58-0.89,15.86a3.25,3.25,0,0,1-1.76,1.65c-6.19-4.26-10.44,3.29-16.88,2.5-9.24-1.13-14.37,12.78-7.81,20.39,2.75,3.2,3.21,6.17,3.32,9.79,0.31,10.3,3.38,21.49.36,30.68-4.22,12.83,2.56,23.77,1.61,35.75-1,13.08.22,13.84,12.84,10.48,9.09-2.42,15.3.32,20.25,7.56-8.24-2.18-15.95-6.16-25.07-4.18-8.43,1.83-10.2,4.35-6.4,12.16,2.1,4.32,4.57,8.55,6,13.09,6.24,19.22,6.06,18.91,25.72,15.1,6.74-1.31,7.6-5.1,6.94-10.27-0.92-7.26-3.81-13.93-7.3-20.31-1.07-2-3.73-3.71-.09-5.67,13.17,11.59,17.27,44.71,6.52,58.83-1.45,1.91-3,4.42-5.07,5.08-15.44,5-31.36,8.65-47.55,6.62-6-.75-11.85-1.9-17.77-0.9-19.81,3.31-36.73-8.84-37.75-28.93-1.17-23-10.91-45-7.39-68.43,0.48-3.2-.75-6.73,2.38-9.27,1.24-1,2.27-2.86,1.29-4-7-8.05-3.08-17.92-4.57-26.85-0.89-5.33-1.95-7.44-8-6-6.64,1.6-13.43.7-20.41,0-13.15-1.3-26.35.15-39.06,6.44s-26.9,5.74-40.59,1.46a5.78,5.78,0,0,1-4-4.46c-2.65-10.27-5.55-20.25-12-29.27-3.89-5.46-2.1-13.45-2.64-20-2.09-1-2.78.41-3.4,1.22-3.91,5.08-9,7.78-15,5.06-5-2.24-7.36-6.73-7.06-12.62,0.36-7.08,3.47-12.16,9.8-15.06,8.55-3.9,15.35-11,24.76-13.33a2.43,2.43,0,0,0,1.69-2.84c-0.15-1.55-1.24-1.74-2.57-1.8-8.29-.36-9.36-6.45-9.65-12.73-0.79-17.25-.85-34.55-2.21-51.74-0.76-9.6,3.58-13.35,11.95-14.25,5.48-.6,10.09-1.61,14.43-6.06,4.09-4.2,11.43-5.08,16-1.15,7.06,6.09,15.53,4.5,23.25,6.59a118.57,118.57,0,0,0,20.39,3.86c9.7,0.87,14.06,5.77,13.64,15.25-0.3,6.77-.2,13.18,6.87,17.17,1.56,0.88,2.86,3.5,3,5.41,0.47,6.62,4,8.87,10.21,10.29,5.57,1.27,9.22,3.85,9.55-5,0.12-3.28,5.09-5.55,9.47-4.83,1.07,2-.28,2.79-1.52,3.69-0.89.64-2.26,1.41-.65,2.62,1.11,0.83,2.78.62,3.11-.52a20.89,20.89,0,0,0,.5-6.21c-0.49-16.36-1.31-32.72-1.45-49.08-0.05-5.93-1.77-9.11-7.91-9.66-2.66-.24-5.22-1.48-7.87-2-24.08-4.87-29.72-16.26-31.08-38.1-2.15-34.44-2-69-2.3-103.56-0.15-16.77,5.31-23.33,21-28,24.29-7.25,24.29-7.25,24.19-33q0-6.37-.19-12.73c-0.11-3.93-1.3-7.13-5.68-8.18-5.87-1.42-6.92-5.63-6.93-11.05,0-10-.49-20-0.95-30a19.89,19.89,0,0,1,2.82-11c4.5-8.28,1.57-17.7,2.1-26.61,0.5-8.48,2.5-16,9.35-21.53,0.08,0.88.56,2.07,0.16,2.63-5.59,7.74-5.62,13.7,4.92,16.67a6.6,6.6,0,0,1,2.15,1.64c8.51,7.5,18.49,2.86,27.83,3.25,1.58,0.07,2.55-1.65,2.49-3.28-0.37-9.77-3.95-18.25-11.25-24.75-6-5.32-12.28-2.93-18.4.27-2.67,1.4-5.44,2.58-8.17,3.86,2.28-3.81,5.73-7.07,9.7-7.82,13.27-2.48,25.22-8.76,38-12.32,8.69-2.41,17.87-3,26.8-4.56,10.07-1.77,17.3,3,22.28,10.76,9.34,14.66,11.69,30.68,6.84,47.51-2.87,10-9.45,15.78-19.83,17.16-4.5.6-9,2-13.46,1.78-8.92-.39-9.8,4.19-8.71,11.38,0.81,5.37.63,10.89,0.8,16.34,0.22,7.08-.9,14,7.27,18.78,4.91,2.87,5.19,9.94,5.67,15.69,0.33,3.92.08,7.89,0.24,11.82,0.56,13.06,4.09,15.51,17,13.49,29.87-4.68,59.8-9,89.71-13.38,2.16-.32,4.73-1.21,7,1.63l-128.6,20.06-0.16,1.56c5.52,1.42,11.22,2.39,16.5,4.44,2.9,1.13,7.72-.17,8.39,5-16.35,2.67-31.71,8.8-48.38,13.36,7.48,8.13,12.13,16.63,13.19,26.9,0.41,3.94,2.61,5.18,7,4.48,12.48-2,25-3.95,37.65-4.52,7.56-.34,7.62-4.16,6.87-9.25C891.82,661.46,886.06,651.14,877,642.58Zm90.79,605.79c5.18,2.45,10.34,6.19,17.07-.37-6.63.36-11.82-3.45-17.18,0.41-2.12-3.72-4.65-1.64-6.61-.1-1.27,1-2.87,3.72-2.42,4.38,1.9,2.8,5,3.74,9,3.44C967.06,1253.48,961.27,1250.41,967.83,1248.38Zm9.5-73.34c13.71,3.2,25.81-4.09,38.67-6.38l-39,6.56c1.3-5.67,7.49-3.25,12-6.66-6-.65-12.18,1.36-12.54-6.34,0-.59-2-1.74-2.85-1.54-7.12,1.73-14.83,1.38-22.25,5.23C960.42,1170.15,970.14,1168.9,977.33,1175ZM368.2,1261.86c-1.68,6.38-9.22,7.08-14.09,13.92,5.37-2.16,8.66-.48,11.72-1,4.56-.78,8.45-3.49,9-8.59,0.54-5.6-4-3.7-6.89-4-4.82-8.38-9.82-16.36-21.74-12.47-4.44,1.45-10.92.06-8.7,8.75,2.55,10,5.83,13,13.34,11.93C357.64,1269.35,361.73,1263.3,368.2,1261.86Zm272.65,73.89c-0.37-1.9-.5-5.92-2.33-4.65-3.62,2.52-7.44,6.5-8.41,10.53-0.71,3,3.79-.82,5.75.52,0.7,0.94,1.24,2.47,2.14,2.71,9.84,2.71,19.7,5.38,29.65,7.64,2.13,0.48,4.74-.52,7-1.28a8.12,8.12,0,0,0,5.66-7.52c0.21-4-3.52-4.49-6.29-5.27-7-2-14.13-3.36-21-5.59C648.05,1331.25,644.28,1332.22,640.85,1335.76ZM490.7,491c-3.77,14.62-1.12,29.28,0,43.93V491.06c-0.3-3.62-.82-7.23-0.87-10.85q-1.21-80.35-2.3-160.7a124,124,0,0,0-1-16.5c0.73,56.6.56,113.17,1,169.74C487.65,478.71,486.36,485.52,490.7,491Zm27.47,9.28c-1.59,14,.38,28,0.76,41.93,2.25-14,.71-28-0.76-41.9,0.2-2.39.61-4.79,0.58-7.18-0.68-50.84-1.31-101.67-2.2-152.5-0.18-10.46-1.36-20.91-2.08-31.36-1.38,8.26-.59,16.35-0.47,24.44q1.24,77.61,2.25,155.23C516.32,492.81,515.41,496.87,518.18,500.3Zm10.88,566.52c2.25-14.16.79-28.22-.7-42.28-2.31,14.16,0,28.19.71,42.27-0.69,64.31,2,128.54,4.42,192.78,2.24-7.76.1-15.43,0-23.14-0.68-53-1.52-106-2.16-159A22.44,22.44,0,0,0,529.06,1066.82Zm60.43-498.9c4.52-15.21.89-30.49,0-45.75v45.72c0.38,5.75,1,11.49,1.1,17.24,0.77,51.25,1.34,102.5,2.21,153.74,0.21,12.14,1.31,24.26,2,36.39,1.47-7.9.77-15.66,0.65-23.43-0.83-53.67-1.36-107.35-2.52-161C592.75,583.23,594.1,575,589.49,567.92Zm194,783.44c2.91,2.79,1.77,6.88,3.28,10.14,0.84,1.82.53,4.75,3.26,4.81,5.11,0.1,10.84.49,14.78-2.79,3-2.54,1.53-7.32.6-11.11a39.11,39.11,0,0,0-4.64-11.62c-5.36-8.55-13.58-11.82-23.06-8.79-3.09,1-4.41,2.34-1.49,5.57,3.58,4,6.73,8.42,7.49,14-2.53.54-3.8-.52-4.7-3-0.82-2.21-2.39-4.14-3.61-6.21a9.91,9.91,0,0,0-6-5.11c7.88,9.07,10,18.94,11.67,29.59C785.35,1361.56,777.39,1355.56,783.49,1351.35ZM844.07,259.29q8.14-41.14,16.27-82.28c0.79-4,1.42-8.65-3.83-9.46s-4.73,4-5.4,7.51q-7.48,38.51-15.12,77c-0.79,4-3.72,9-.31,11.55,2.65,2,5.24-4,8.75-4.93l-4,9.32c7,1.77,13.08-3.7,19.51-.81-2,2.89-5,.78-7.45,1.48-2,.58-4.68,1.48-2,4.08,9,8.59,12.46,19.66,14.69,31.34,1.51,7.93,7.67,4.62,11.6,4.08,6.35-.88,14.28,1.76,18.34-6.15a4.27,4.27,0,0,0,.1-1.79c0.09-22.48-13.3-34.93-35.43-33,6.85-3.15,13.86-6,19.06-11.72C865.94,248.68,855,254.22,844.07,259.29Zm-9.56,1063a80.86,80.86,0,0,0-30.15.35c-1.69.36-3.87-.48-4.73,1.66-0.63,1.59.6,2.83,1.73,3.82,9,7.83,12.12,18.27,13.59,29.56,0.54,4.2,2.93,6.2,7.43,6.09,23.48-.58,27.11-6.49,18.17-28.46-1.86-4.57-7.76-7.19-6.28-13.24,2,0.65,2.56,5,5.52,2.73,1.44-1.11,2.2-3.52,2.58-5.48,0.5-2.56-1.52-3.67-3.69-4.22q-5.65-1.46-11.34-2.79c-4.43-1-6.48.94-6.76,5.78C826.24,1316.69,830.76,1318.36,834.51,1322.26ZM810.13,648.64c5.51,4.52,11,6.85,18.63,4.07,11.81-4.3,24.08-7.33,36.16-10.89a72.33,72.33,0,0,0-17-5.58c-1.35-.3-3.34-1.46-4.18.13-7.57,14.4-21.17,12.18-33.86,12.51,5.78-5,13.58-3,20.09-5.78,4.26-1.8,8.11-3.38,7.36-8.72-1.91-13.6-1.08-27.26-1.2-40.89-0.06-6.64-3.23-8.51-9.12-7.87-5.11.56-10.25,1.52-15.35,1.43-6.32-.12-8.7,2.47-8.57,8.64,0.26,13,.27,26.09.17,39.13C803.17,640.72,805.2,645.35,810.13,648.64Zm-203-512.58c-3.15,3.89-8,3.14-13.62,4,10.56,5.8,14.74,14.55,17.61,24.14,4.17,13.93,4.12,13.95,18.72,12.29a8.12,8.12,0,0,1,.91,0c6.78,0,8.83-3.53,10-10.11,2-11.28-5.65-18.57-9.24-27.54,8.57-1.64,17.13-3.4,25.73-4.89s8-9,7.37-14.2c-0.66-5.65-6.29-2.18-9.62-1.71-26.88,3.84-53.78,7.56-80.55,12.08-10.12,1.71-20.9.59-30.26,6.14,2.59-8.56,10.25-6.58,16.25-7.51q56.31-8.79,112.69-17.17c7-1,10.69,3.15,9.48,10.37-0.59,3.53-1.54,7-.6,10.81,9.38-1.57,18.55-3.19,27.75-4.61,3.63-.56,6.32-1.91,7.06-5.82,2.36-12.44,5-24.84,7-37.34,1.8-11.4-6.25-20.6-17.58-19.91-8.7.53-17.34,2.2-26,3.48-52.8,7.85-105.51,16.35-158.43,23.2-14.38,1.86-25.4,14.17-21.55,31.27,4.83,21.47,10.81,42.68,16.14,64,1.3,5.22,4.25,6.68,9.3,5.7a180.62,180.62,0,0,1,20.53-3.25c6.08-.47,7-2.84,5.31-8.2a149.4,149.4,0,0,1-5.12-20.12c-1.38-8.13-6.44-16-2.31-24.67,3.94,16.06,7.72,32.16,11.89,48.16,1.5,5.76,6.13,3.26,9.8,2.69,3.51-.55,5.8-1.28,4.7-6.2-1.5-6.76-1.21-13.81-.34-20.77,1.6-12.89,8-19.68,20.89-21.86C596.4,137.57,601.79,136.86,607.16,136.06Zm438.3,1149.68c-2.34,4.73-8.16.08-11.05,3.94,10.77,2.88,13.48,12.36,16.5,20.67,6.28,17.3,5.81,17.32,24.1,15.62,7.11-.66,11.16-2.69,8.13-10.82-0.61-1.63-1-4.21,1.37-5.47,7,1,.57,14,11.08,11.9,6.23-1.25,12.59-1.82,18.89-2.69,0.9-.12,1.81-0.16,2.72-0.25,13.58-1.3,15.67-4.41,11.2-17.58a72.33,72.33,0,0,0-5.52-11.38c-3.37-6.1-8.92-8-15.42-6.85-8,1.39-15.8,3.38-24,3.49-5.14.07-6.72,2.32-3.59,7.27,5.17,8.2,5,8.32,3.94,15.13-6.4-12.82-11.59-26.24-29-24.12,3.56-5.13,9.25-7.47,14.41-10.71-19.28-5.85-31-2.3-39.65,11.85h15.88ZM942,213c-4.54,5.24-13,6.7-14.86,14.31-0.88,3.51-4.92,9.07,1.18,10.71,5,1.34,11.49,7.34,16.24-1.75,4.32-8.26,10.1-15.55,18.85-19.66-6.85-4.05-14.55-1.64-21.65-3.34,2.19-5.71,7.17-3.93,10.68-3a159.74,159.74,0,0,0,41.71,4.78c5.54,0,12.24.82,14.14,8.36-0.09,6.61-5.73,4.06-8.74,4.73-9.77,2.17-16.24,7.54-19.09,17.05-0.61,2-2.24,4.75.77,6.46a5.38,5.38,0,0,0,6.67-.58c2.77-2.29,6.65-3.66,8.58-6.44,4.61-6.68,14.79-10.45,11.87-21.32,4.13,2.05,7.6,3.12,7.14-3.78-0.32-4.82,0-9.69-.38-14.5-1-12-1.9-12.27-13.62-10.42-27.33,4.3-54.8,7.74-82,12.55-26.11,4.62-21.87-2.84-26.87,24.34-0.32,1.77-1,3.47-1.34,5.24-2.51,14-2.49,14,9.72,20.69a8.56,8.56,0,0,1,1.51,1c3,2.6,5.87,5.65,10.26,2.6,4.14-2.87,6.84-6.18,6.38-11.91-0.86-10.57,1.64-20.51,8.7-28.69C931.43,216.27,935,211.2,942,213ZM850.06,252c4.58-.92,6.83-2.73,8-5.75,1.72-4.28,4.69-7.39,9.41-7.31,4.94,0.08,7.32,4,8.66,8.13,0.85,2.64,1.73,4.29,4.84,4.15,3.62-.16,3.26-2.88,3.72-5.16,7.19-36.05,15-72,21.37-108.2,3.78-21.33-4.46-28.51-25.85-25.3Q794.84,125.3,709.43,138c-19.88,3-29.73,14.43-25.61,31.4,8,33.08,16.84,66,25.17,99,0.93,3.68,2.44,6.28,6.39,6.4,4.34,0.13,2.82-3.58,3.67-5.9,2-5.41,5-10.14,11.84-8.53,6.23,1.47,8.88,7.15,6.39,11.8-4.4,8.2,1.88,9.44,6,12.64,1.58,1.23,3.09,2,4.9,1,2.32-1.35.68-3.13,0.27-4.76-2.92-11.7-5.8-23.41-8.75-35.1-4.27-16.93-8.65-33.83-12.88-50.77-3-12.09-.73-16.87,9.1-18.38q59.88-9.16,119.8-18c8.41-1.24,11.25,2.07,10,10.85-0.37,2.68-.67,5.37-1.18,8C859.81,202.11,855,226.63,850.06,252Zm45.69,486.14c-0.92-15.14.44-30.31-1.27-45.45-0.47-4.16-1.68-5.88-6.15-5.36-13.19,1.52-26.43,2.66-39.63,4.07-4.28.46-5,3.53-5,7.26-0.2,27.9.51,55.77,1.7,83.64,0.21,4.92,2.13,6.5,6.66,5.87,12.25-1.68,24.46-3.77,36.76-4.82,6.43-.54,7.12-3.58,7-8.84C895.57,762.36,895.76,750.22,895.76,738.09ZM604,572.69a21.59,21.59,0,0,0-.27,3.58c3.56,39,1.66,78.18,3,117.27,2,59.37,2.33,118.81,3.82,178.21,1.29,51.53,1.53,103.09,2.23,154.63,0,1.82-.37,3.75.12,5.44,0.87,3-1.42,8.2,4.2,8.23s5.23-4.42,5.31-8.54c0.37-20-1.24-40-1.53-60q-1.25-87.31-3.52-174.59c-1.79-69.1-2.86-138.23-3.88-207.35C613.32,581.77,612.28,575.7,604,572.69ZM829.74,258.1c2.61-12.25,5-23,7.16-33.88,0.74-3.78-1.79-4.8-5-4.33q-42.48,6.3-84.94,12.7c-4.1.62-5.46,2.67-4.23,7,3.49,12.47,6.56,25.06,9.77,37.61,0.56,2.2.06,5.09,4.23,3.38,3.34-1.37,3.27-3.25,1.91-5.61a8.91,8.91,0,0,1-.59-8.61c2.85-6.66,5.54-13.38,8.18-20.13,1.43-3.66,3.9-6.74,7.67-7,12-.81,25.5-10.6,34.92,5.42a3.74,3.74,0,0,0,2.4,1.09C818.6,247.08,824.4,251,829.74,258.1Zm11.68,588.13h-0.19c0-6.65-.06-13.3,0-20,0.06-5.13-1.84-8.13-7.47-7.63A44.39,44.39,0,0,1,816,816.16c-7.55-2.5-9.76.82-9,7.29,1.75,14.45,1.32,29,1.66,43.45,0.08,3.46.63,7.13,4.53,8a40.29,40.29,0,0,0,25.66-2.6c5.26-2.44,2.1-10,2.53-15.21C841.66,853.51,841.42,849.86,841.42,846.23ZM629.31,315.72c20.82,5.38,40.52,10.87,60.43,15.48,11.54,2.67,21.11-2.31,24.34-10.72,1.64-4.25,1.13-7.38-3.52-8.38-5.21-1.12-10.58-5.77-15.81.48-2.61,3.11-5.32.43-6.94-1.37-7.45-8.29-18-9.14-27.61-12.54-10.33-3.65-17.79-2.84-22.76,8C636,309.82,632.69,312.08,629.31,315.72Zm413.61-83.9c-20.41-6.67-36.32-1.22-39.62,12.24,5,0.76,9.93-3,16.49.32l-10.49,1.13c6.88,6.24,11.54,12.48,14,20,2.09,6.47,1.57,15.93,6.86,18.6s13.42-.82,20.34-1.22c5.66-.33,7.44-3.19,6.5-8.38a72.52,72.52,0,0,0-1.82-8.87c-2.38-7.53-5.62-14.54-11.56-20.15-5.51-5.2-11.73-2.42-17.75-2.44-0.71,0-1.85.05-1.56-1.57C1031,240.52,1034.85,234.41,1042.92,231.83Zm-238.07,46.8c3.57,0.23,4.79,2.81,6.62,4.76,1.65,1.77,3.37,3.61,6.2,1.73s4.72-5,3.61-7.67c-2-4.73-7.45-4.43-11.65-5.68-3.08-.92-7.83-2.73-8.89,1.1-1.57,5.68-5.15,4.69-8.95,5-4.76.42-9.51,1.1-14.22,1.92-1.73.3-3.34,1.32-5,2,0.93,1.81,1.41,4.28,2.88,5.31,6.73,4.7,9,11.9,11.1,19.08,4.63,15.8,4.49,15.84,20.44,13.23,1.5-.24,3-0.41,4.5-0.64,6-.94,7.95-4,6.76-10.24C816.15,297.53,812,287.56,804.86,278.63ZM887,268.53c4.12,5.87,6.33,10.8,8.87,15.55,3.26,6.1.35,16.31,7.82,18.39,6.75,1.88,14.84-1,22.33-1.86,2.09-.24,4.14-0.86,6.21-1.3,9.52-2,12-4.6,8.72-13.41-6.59-18-10.82-24.93-30.44-19.63C903.31,268.22,895.85,269.66,887,268.53Zm27.09,1042.78c3.37,5.78,6.49,10.18,8.59,15a82.31,82.31,0,0,1,4.68,15.42c0.75,3.49,1.72,6.09,5.72,4.66,6.67-2.39,13.71-1.9,20.5-3.16,16-3,18.28-7.62,11.11-22.69a30.36,30.36,0,0,0-3.06-5.5c-4.39-5.73-9.18-8.72-17.49-7.49C934.48,1309,925.31,1313.76,914.09,1311.32ZM1049.6,245.41c6.74,9.54,11,19,12.16,29.53,0.53,4.69,3.7,4.66,7.31,4.07,7.43-1.22,14.89-2.31,22.34-3.46,12.91-2,13.93-3.53,10.94-16.41-2.57-11.05-12-20.43-19.43-19.28C1072.13,241.54,1061.74,245.3,1049.6,245.41ZM478.86,743.06l2.26,0.12-8.71-444.73-2.27,0Zm3.45,59.31-2.24,0,9,446.09,2.24,0ZM845.7,465.61c7.48,7.71,12.48,15.6,15,25.19,3.86,14.56,4.09,13.55,19.31,12.8,16.76-.83,12.36-3.28,11.44-16.1a16.73,16.73,0,0,0-1.49-5.18c-6.93-16.29-12.1-23.1-27.18-19.06C857.66,464.65,852.17,464.77,845.7,465.61ZM768.33,919.28c11,10.33,16.71,21.89,17.5,35.74,0.2,3.5,2.35,4.66,5.59,4.2,6.28-.89,12.57-1.78,18.84-2.75,2.45-.38,4.68-1.12,5.5-4,2.56-8.86-6-27.4-14.13-32.2C791.14,914.11,780.63,917.75,768.33,919.28Zm191.54,380.15c9.93,9.86,15.43,20.49,17.07,33.1,0.52,4,2.17,9,7.1,7.24,7.72-2.68,17.05-.37,23.28-7.43,0.28-.32,0-1.16,0-1.75-1.06-10-3.31-19.76-10-27.54-3.75-4.37-8.09-8.15-15.34-6.19C975.39,1298.62,968.34,1298.53,959.87,1299.42ZM933.67,256.35C945,270.94,945,271.14,950.14,289.16c0.67,2.36.16,6.3,3.49,6.77,8.83,1.25,18.06.82,25.07-4.76,5.3-4.22.75-10.83-.7-15.9-4.72-16.55-12.93-22.81-27.26-20.9C945.5,255.08,940.22,255.92,933.67,256.35ZM693,273.55c-2.24-8.67-4.76-16.94-6.4-25.38-0.89-4.56-2.27-5.87-7.05-5.13-18.4,2.85-36.87,5.19-55.3,7.78-2.38.33-4.94,0.85-5.83,3.51-0.44,1.31-.41,4.11.9,3.8,4.39-1,6.37,7.38,9.33,3.57,3.62-4.64,6.39-1.33,9.34-1,5.57,0.65,10.62,3.32,16.72,2.55,11-1.38,22.23-2.4,30.11,8.41C686.39,273.89,689.51,273.63,693,273.55ZM399.51,256.84c8.62,2.24,16.84,3.92,24.74,6.56,9.76,3.25,19.28,4.5,29.25,1.06,6-2.07,10.21-5.66,10.7-12,0.51-6.56-5.91-4.39-9.17-5.85a74.79,74.79,0,0,0-14.75-4.34c-5.62-1.22-11.32-4.21-16.86,1.31-1.09,1.08-7.31,3.37-7.34-3.84C411.16,246.38,406.34,252.09,399.51,256.84ZM847,1059.12c0-1.81-.09-3.62,0-5.42,0.85-14.89.24-15.41-14.64-13.44a66.72,66.72,0,0,1-10.82.48c-4.6-.15-6.56,1.39-6.05,6.35,0.64,6.28,1.22,12.69.63,18.94-0.78,8.2,2.79,10.37,10.27,10.59C845.22,1077.18,845.34,1077.31,847,1059.12Zm-3.28-157.79c-0.48-17.66-.48-17.65-18.33-17.69-0.86,0-1.79-.91-2.56-0.75-5.1,1-10.33,2.31-10.2,9,0.18,9.28-4.28,21.43,5.48,26.51C833.2,926.31,844.19,917.93,843.74,901.33Zm1.84,103c0-3.31-.07-6.63,0-9.94,0.2-7.78-3.53-11.22-11.18-9.91-20.6,3.52-22.38-3.61-19.06,23.2,0.07,0.6.18,1.19,0.24,1.79,1.21,11.92,1.2,11.92,13.57,11.78C845.91,1021.06,845.91,1021.06,845.58,1004.32Zm173.4,188c-0.21-6.14.77-10.94-2.2-14.85-2.39-3.16-34.6,2.63-35.58,6.58a33.43,33.43,0,0,0,2.18,22.21c2.66,5.52,8.73,0,13.31.11,3.83,0.09,7.65-1.8,11.54-2.11C1016.9,1203.57,1021,1199.67,1019,1192.31ZM806.71,562.62c0,19.76,0,19.89,19.85,17.8,4.16-.44,10.51-0.2,9.93-6.55-0.91-9.84,4-20.45-3.51-29.46a3.63,3.63,0,0,0-1.72-.45C812.77,539.43,806.71,544,806.71,562.62ZM465.19,296.74l-2.28.18,6.51,328.74,2.24,0Zm16.66,949.94,2.27,0-6.59-330.07-2.21,0ZM685.73,383c0.2,7.23-2,15,8.83,13.5,8-1.15,16.06-2.5,24.12-3.58,3.71-.5,5.3-2.54,5.29-6.06,0-3.93.09-7.87-.28-11.77-0.5-5.27-2.44-8.19-8.84-6.35-5.43,1.56-11.28,1.88-17,2.24C689.41,371.52,683.45,373.93,685.73,383Zm324-48.05c0,13.74,0,13.78,11.72,12.56,5.09-.53,10.16-1.34,15.25-1.87,10.74-1.11,12.52-3.42,11.15-14.8-1.32-10.94-2-11.34-14.06-9.34-4.46.74-9,2.07-13.41,1.81C1010.35,322.73,1008.44,328,1009.74,335Zm-18,21.43c-5.68.9-14.85-3.46-14.45,9.28,0.59,18.57.29,18.34,17.35,18.44,7.46,0,12.11-1.11,11.64-10.3C1005.42,356.17,1005.76,356.15,991.77,356.39Zm-1.5-5.15c5.3-1.3,14.66,4,14.43-9-0.31-18,.17-18-18-15.58a15.94,15.94,0,0,1-3.59.33c-6.76-.68-8.89,2.55-9,9C973.9,351.2,973.71,351.25,990.27,351.24ZM820.17,475.08c8.66,7.58,11.29,17.84,14.29,27.92,0.64,2.15,0,4.82,3.46,5.55,10.93,2.29,17.3-4.6,14.37-15.45-1.44-5.33-3.32-10.35-6.88-14.59-4-4.73-8.7-7.2-15.14-5.27C827.22,474.15,824,474.41,820.17,475.08Zm106.5,715.3a36.46,36.46,0,0,1,11.19,19.31c1.27,5.52,3.6,6.93,8.76,5.43a104.4,104.4,0,0,1,10.65-2.13c2.53-.46,4.54-1.3,5.15-4.22,2.58-12.32-9.69-24.14-22-21.17C936.42,1188.59,932.3,1189.26,926.68,1190.38ZM746.55,291.14c8.56,10.43,10.42,13.63,13.36,27,1,4.38,2.49,7.62,6.85,5.35s12.58,1.21,12.3-8.35C778.47,295,767,286.09,746.55,291.14ZM372.38,1276c2.13,2.77,5.51,2.19,8.32,2.95,10.39,2.81,20.84,5.47,31.35,7.79,5.93,1.31,10.11-1.7,11.5-7.37s-3.73-5.93-7.32-6.94c-7-2-14-3.59-21-5.58C381.08,1262.75,380.62,1262.88,372.38,1276ZM355,236.31c12.61,3.56,25.2,7.28,37.9,10.56,3.18,0.82,6.53-.54,9.49-2.24s4.09-4.52,4.23-7.58c0.18-4.06-3.56-3.4-5.9-4.06-7.86-2.21-16-3.52-23.61-6.42C366.27,222.43,359.39,225.65,355,236.31Zm97.05,1060.4c14.5,5.28,28.88,8,43.32,10.18,4,0.62,6.18-2.62,7.82-6.21,2.23-4.87-1.85-4.42-4.17-5.85-7.14-4.42-15.48-4.68-23.23-7C461.72,1283.74,461.69,1283.84,452.07,1296.72ZM565.27,767.61l2.42,0C566.3,698.77,563.84,630,564,561.12l-2.81,0Zm-14.34-3.74,2.22,0L549,557.7l-2.27,0ZM505.77,547.59l-2.19,0L507.73,753l2.29,0Zm16.4,209.06,2.26,0-4.28-205.36-2.23,0Zm25.43,59.2-2.84.06L549,1022.32l2.39,0C550,953.46,547.39,884.68,547.6,815.84Zm-11-55.55,2.25-.22-4.31-205.19-2.24,0ZM525.4,813.36l-2.28.2,4.34,203.63,2.2-.05Zm-19.61,196.83,2.27,0-4.29-204.08-2.22,0Zm12.38-200.43-2.28,0,4.34,204.06,2.21,0Zm23.64,211.18,2.21-.21-4.2-203.58-2.27.05Zm11.83-200.1c-0.81,67.92.88,135.84,3.81,203.73C557.18,956.65,554.68,888.77,553.64,820.83ZM541.76,558.52l-2.26,0,4.32,203.54,2.2,0Zm-50.28-14.46-2.2-.06,4,203.6,2.31-.05Zm7.11,466,2.26,0-4.22-204-2.21,0Zm-9.16-207.64-2.36,0c1.28,68,3.77,136.06,3.79,204.12l2.74,0ZM527.36,554.9l-2.23,0,4.27,203.91,2.23,0Zm7.23,462.55,2.22,0-4.23-204.09-2.25,0ZM513,1013.67l2.22,0L511,809.71l-2.23,0ZM515,755.26l2.25,0-4.2-204-2.21,0Zm-14.47-3.88c1.52-67.88-.28-135.68-4-203.44Zm74.14,18.34-3.94-203.63C569.2,634,570.9,701.89,574.63,769.71Zm-16.47-3.81,2.18,0.16-4.12-203.94-2.27,0Zm46.33,65.64-2.19.23,3.94,204.51,2.27-.06Zm-39,194.43-4-204.43C560,889.73,561.68,957.85,565.45,1026ZM486,746.65l2.32,0.25-4-203-2.17,0Zm95.77,24.5-3.94-204.49C576.47,634.92,578,703.13,581.8,771.15Zm-9.17,257.13-3.92-202.95Q566.7,926.9,572.63,1028.28Zm12.45-457.91c-1.21,67.75-.11,135.43,3.91,203ZM592,1034.81l2.17-.05-4-207.16-2.21.06Zm7-.79,2.28,0.21L597.37,831.3l-2.17,0ZM575.86,825.22l-2.19,0,3.9,204.55,2.19,0Zm256.6-301.15c-0.3-11.59-.31-11.07-16.65-11.33-12.24-.19-8.76,8.29-8.91,14.47-0.24,9.68.53,10,14.47,9.68C832.31,536.67,832.78,536.13,832.46,524.08ZM583,828l-2.17-.06,3.89,204.23,2.19-.06Zm18-50.85,2.22,0.19L599.4,572.88l-2.16,0Zm229.31,305.54c-12.06,0-11.85,0-12.17,17-0.12,6.15,3.49,8.31,7.82,6.7,6.56-2.44,17.87,3.54,19.19-8.26S842.2,1082.64,830.38,1082.66Zm-314.13-14.39-2.26,0,3.92,187.5,2.17,0ZM553,505.51l2.24-.1-4-187.24-2.24,0Zm-49.42,746.63h2.23l-4-187.59-2.25.05Zm70.23-169.55-2.13-.18,3.38,187.71,2.36-.06Zm30.26,195,2.27,0.09-4-187.58-2.19,0Zm-16-191.22-2.16,0,3.67,187.72,2.29,0Zm-64-588.07,2.32-.2-3.85-187.13-2.13.05Zm7.26,2.12,2.29-.07L529.7,313.1l-2.18,0Zm7.24,1.5,2.26,0-4-187.32-2.19,0ZM544,316.79l-2.19,0,4,187.17,2.25,0Zm72.69,777.1-2.22-.12,4.07,187.52,2.19,0Zm-49.3-584.71,2.22-.21-4.06-187.14-2.24,0Zm14.34,3.63,2.2-.09L580,325.47l-2.26,0ZM581,1086.3c-1.51,62.25,1.21,124.58.77,187l2.88-.06Zm15.82,189.52,2.3,0L595.24,1090l-2.16,0Zm-36.61-768.2,2.21,0-4.06-187.05-2.23,0Zm-63.81,742.69,2.22-.15-4.06-185.57-2.23.05Zm50.06,14.18,2.14,0-3.39-188.05-2.31.05Zm48-935.42-2.33.11,3.92,187.18,2.13-.05Zm7.25,2.28-2.32,0,3.77,187.26,2.1,0Zm-14.49-2.26-2.28,0,3.93,185.78,2.17,0Zm-63.74,742.83-2.33-.06,3.89,185.79,2.12,0Zm15.81,189.63,2.1,0L538,1075.61l-2.34.05ZM509,1068.21l-2.29,0,4,185.74,2.16,0Zm102.28,211.22,2.25,0-4-185.74-2.18,0ZM574.58,511.29l2.21,0-4-185.79-2.25,0ZM481,488.48l2.11-.36-3.38-187-2.31.07Zm28.55,4.39c3.2-12.55-.34-176.57-3.35-187.47Zm51.13,772.67,2.31-.15-3.4-184.92-2.12,0ZM494,304.64l-2.14,0,3.17,183.8,2.31,0Zm58.44,775.64-2.3,0,3.36,183.33,2.12,0Zm-51.27-772-2.09,0,3.16,183.92,2.35-.05Zm65.53,775.81-2.11-.28,3.18,183.55,2.34-.05Zm189.1-178.25c4.69,0.91,9.69,1.59,10.18,7.89,0.14,1.75,2.12,1.73,3.63,1.94,10.77,1.49,15.65-2.84,15.28-13.65-0.11-3.22-.32-6.43-0.56-11-3.07,3.27-5.67,3.2-8.91,2.69C763.1,891.77,761.47,893,755.85,905.81Zm-68.57,54.61c-11.89,0-14.57,3.94-10.08,14.84,1,2.37,2.38,4.13,1.88,7.4-0.74,4.81,3.53,6.62,7.8,6.05,5.12-.68,12.65-6,11.65-7.39-4.2-5.83-3.88-12.45-5.91-18.54C691.82,960.39,689.48,960.29,687.28,960.42ZM331.83,229.64c2.65-.22,5.25,0,7.8-1.51,5.18-3.06,9-5.41,6.67-13.27s-6.83-5.82-11.71-5.36a51.46,51.46,0,0,0-5.38.59c-4.26.86-9.69,0.41-9.4,7.14C320.14,224.63,325.28,229.82,331.83,229.64ZM709.62,1371.87c15.68,4.4,25.14,2.6,29.9-5.81,1.91-3.38,5.67-8.36.19-10.91-4.88-2.28-11.6-6-16.26.24C719.3,1360.91,714.69,1366,709.62,1371.87Zm-290.56-80.15c13.95,4.93,16.17,5.55,26.67,3.74,5.39-.93,9.74-4.42,8.82-10.62-0.72-4.84-20.33-9-24-5.36S423.27,1287.19,419.06,1291.72ZM737.2,389.6c4.17-2.38,12.38,1.6,12.28-7.19-0.09-8.17-3.56-15-11-19.49-2.78-1.68-5-1.63-7.42.26-2.88,2.27-.83,24.64,2.46,26A12.93,12.93,0,0,0,737.2,389.6Zm-41-327.73L695.9,60,514,87l0.28,1.91Zm1,72.23,0.28,1.89,179.21-26.63-0.28-1.91Zm-38.41,38.24c3.57-.93,8-0.56,7.25-3.92-2.86-13.66,3.59-24.42,9.6-35.49,0.83-1.52.89-3.47,1.26-5.22,0.77-3.61.53-6.33-4.13-7.11-5.06-.84-4.65,3.31-5.13,5.64C664.52,141.22,661.81,156.28,658.77,172.34ZM682,1364.68c3.42,1.09,5.7,1.91,8,2.54,13.57,3.67,19.13,0,21.07-13.73,0.39-2.79-.1-4.75-2.7-6s-6.08-1.85-7.29,1C697.64,1356.8,689.61,1359.43,682,1364.68ZM852.92,797.87c13-1.24,25.56-2.4,38.12-3.65,2.1-.21,4.52-0.56,4.36-3.45-0.2-3.62-3.2-3.19-5.45-2.95-12.49,1.35-25,2.74-37.41,4.47-2,.28-6-0.15-5.76,2.95C847,799,851,797.4,852.92,797.87Zm-12.86,159L818,977C842.81,978.6,844.52,977,840.06,956.82Zm-23.69-31c5.55,4.74,9.34,8.53,13.68,11.51,3,2.06,5.58,7.32,9.47,5.18,3.6-2,1.64-7.2,1.84-11,0.22-4.29-.87-6.67-6.28-5.86S823.85,925.81,816.38,925.81Zm42.36,152.94a53,53,0,0,1-7.39,20.74c-1.34,2.28-2.31,4.75,1.22,5.62,3.81,0.93,7.86,1,11.24-1.43,2.92-2.09,2.1-5,1.45-8.12C864.12,1090,863,1084.53,858.74,1078.75ZM842.7,586c6-1.83,11.43-2.32,15.28,3.67,3.33,5.18,2.82,10.35-.45,15.22A13.22,13.22,0,0,1,847,611c-2.07.14-3.87,2.73-2.27,3,4.53,0.65,9.34-.25,14-0.92,2.72-.39,3.9-2.49,3.85-5.29-0.09-4.52.44-9.11-.21-13.54C860.66,582.66,853.2,579.47,842.7,586ZM660.45,140.6c-9.46,3.83-14.46,9.75-15.26,19.06-0.39,4.45,1.83,6.46,5.86,7.58,5.41,1.49,4.14-3.35,5-5.43A65.83,65.83,0,0,0,660.45,140.6Zm31.93-2.76c-10.09-4.25-22.77,5.23-21.6,15.86,0.26,2.37,1.11,4,3.48,4.63,3,0.84,4.78-.93,5.66-3.22C682.54,148.23,687.53,143.12,692.39,137.84ZM509.19,90.72c-10.65-3.24-19.54,2-21.84,12.64-0.62,2.88-1.41,6.32,2.46,7.67,3.59,1.25,5.65-1,6.93-4.07C499.35,100.73,503.63,95.77,509.19,90.72Zm334,535c-0.6,3.46.37,5.1,4.84,3.86,4.62-1.28,9.54-1.47,14.22-2.58,1.74-.41,5.7,1.12,4.72-3.09-0.76-3.26-.83-7.84-6.08-7.38-4.48.4-8.95,1.18-13.38,2C843.85,619.23,842.67,621.8,843.16,625.71Zm-26.6,305.15c2,7.55,3.11,12.53,4.59,17.42,1,3.32,3.52,4.68,7,4,2.32-.48,5.17-0.6,6.15-3,1.43-3.57-2.43-4.26-4.15-6C826.42,939.57,822.43,936.17,816.57,930.86Zm-101.39-78.4c9.26-5.46,18.55-1.62,27.81-.24,2.13,0.32,5.31,2.91,6.11-.46,0.72-3-2-5.73-5.49-5.52C733.92,846.83,724.27,847.89,715.18,852.46ZM702.85,994c3.76-1,10.06,2,9.44-5.86-0.19-2.37,1-5.85-3.14-6.38-2.55-.33-14,7.39-13.66,9.31C696.36,995.69,700.27,993.15,702.85,994Zm50.57,381.65c3,1,5.45,2.06,8,2.5,4.22,0.74,6.69-1.25,7.82-5.44,1-3.72,1.62-7.53-2.11-9.62-4.53-2.54-5.1,2.71-7.16,4.72A95.37,95.37,0,0,0,753.43,1375.64ZM726.91,333.1c2.49,0.87,4.95,2.15,7.55,2.54,4.13,0.63,7-1.74,8-5.52,0.87-3.37,1.6-7.74-2.13-9.64-4-2-5.46,2.52-7.53,4.72S728.92,330.34,726.91,333.1Zm11.52,522.51c-8.81-2.24-17.1-3.05-23.9,5.5C723.53,862,733.26,869.06,738.44,855.61Zm269.5,389.14c1.65,1.79,3,3,4,4.41,4.26,5.49,8.43,1.42,12.49-.2a3.83,3.83,0,0,0,2.15-5.23c-2.22-4.46-6.66-2.88-10.36-3C1013.06,1240.63,1010.75,1242.69,1007.94,1244.74ZM742.51,886.83c-4-.77-7.84-0.06-6,3.87,1.94,4.13,6.48,7.79,11.61,6.09,2.43-.8,7-2,6.92-5.64-0.07-4.18-4.69-2.09-7.07-3.33C746.21,886.91,743.91,887,742.51,886.83ZM707,958.69c1.2,1.75-1.93,6.95,3,6.12,4.17-.69,9.49-2.85,10.13-7.74,0.67-5.16-4.56-3.35-7.4-3.81C709.17,952.69,705.83,953.11,707,958.69ZM605.47,525.86l-1.14.14v39.91l1.14,0v-40Zm-18,513.38-1.19-.12v39.54l1.19,0v-39.39Zm-29-7.33h-1.28v39.46h1.28v-39.46Zm13,43.24,1,0v-39.69l-1,0v39.7Zm3-298.12h-1.21v39.53h1.21V777Zm27.71,46.73,1,0v-39.5l-1,0v39.5Zm-13.25-43.09H587.8v39.6h1.12v-39.6Zm11.35,301.72,1-.07V1043l-1,.07v39.34Zm217.36-53.58c6.91,4.2,14.3,2.92,21.51,3.49a2.26,2.26,0,0,0,2.61-2.81,2.78,2.78,0,0,0-3.08-2.61C831.65,1027.47,824.64,1028.16,817.63,1028.8ZM575.72,518.64c-2.54,23.21-1.82,33.56,3,38.35C576,543.44,577.44,530.92,575.72,518.64ZM337.09,234.56c8.66-1,16.4,1.85,20.05-7.12,0.65-1.59,1.87-3.34.1-4.94s-3.28-.94-4.85.28C347.84,226.3,343.28,229.8,337.09,234.56ZM726,916.45c-0.11-1.42-.92-2.39-2.28-1.85a58.56,58.56,0,0,1-21.82,4.07c-2.27,0-2.17,1.44-2.17,3,0,2.32,1.25,3.69,3.33,2.61,6-3.13,12.87-2.55,19.13-4.53C723.94,919.17,725.7,918.67,726,916.45Zm-76.83,19c-0.75-2.56-.19-7.27-3.25-7.24-4.21,0-6.07,4.52-6.22,8.5-0.11,2.84-1.66,7.74,3.22,7.75S647.58,939,649.15,935.41Zm-104.58,92.8-2.83,0c0.36,12.48-1,25,2.83,37.38v-37.42ZM487.86,755.95v37.4C488.88,781,490.34,768.64,487.86,755.95Zm72.47,17.47c-3.33,13.26-2.63,31,0,36.81V773.42ZM614.79,1086c1.39-12.92,3.38-25.75,0-40.23V1086ZM504,501.47v37.11C505.48,526.15,506.77,513.74,504,501.47Zm57.17,13.31c-1.36,12.44-1.66,24.85,1,38.24C564.6,539.46,561.89,527.16,561.17,514.79ZM463.71,1220.6c0.54-19.69.54-19.69-11.66-15.43C456,1209.39,460.12,1213.37,463.71,1220.6Zm50.87-161.18,2.43-.28c-3.33-12.68.94-25.83-4.56-38.39ZM977.83,225.53c7.56,3.27,12.33-2.77,19.18-6-9.41-.25-17.74-0.89-26.06,2.19l15.48,1.15C983.8,226.46,980.13,223.44,977.83,225.53ZM533.5,506.8l-2.38.14L533,546l0.53-.09V506.8Zm139.9-215.54c5.11,5.43,9.08,9.52,12.87,13.76,1.74,1.95,4,4,6,2.09,2.92-2.66-.09-4.92-2-6.54C685.69,296.77,680.86,293.29,673.41,291.26ZM502.26,761.13V797A111.46,111.46,0,0,0,502.26,761.13Zm43,45V769.71A113.15,113.15,0,0,0,545.29,806.09Zm3.07-256.51c-1.71-12.82,1.65-25.88-1.94-38.49C544.4,524.09,547.41,536.85,548.36,549.58Zm-47.94,506v-38.92l-2.47.16C500,1029.61,499.3,1042.55,500.42,1055.55ZM728.8,959.22c-3.32,5.9-11.33,4.82-9.75,12.08,0.52,2.37,3.11,4.37,5.47,3.2C729.87,971.86,730.4,967,728.8,959.22ZM516.22,800.78h2.53l-2.21-38.69-2.23.13C516.06,775,516,787.92,516.22,800.78ZM772.42,641c6.14,1.66,10.08,3,14.14,3.68,1.64,0.26,4.25,2.84,5.27-.36a10.72,10.72,0,0,0-.19-7c-1-2.36-3.75-1.1-5.67-.57C782.21,637.77,778.52,639.06,772.42,641ZM530.93,804.67l0.63-.09V766l-2.72.09Zm352.55,410.58,0.66,1.43,42.35-8.39-0.23-1.14Zm-203-785.43,0.95,0.16V406.59l-0.95,0v23.18Zm62.8-134.51c8.22,7.84,7.8,19,12,29.46C755.16,309.22,752.36,302.14,743.27,295.31Zm148.23,924.5,0.31,1.44,37.73-7.4-0.33-1.55Zm-179.06-379,0.21,1.29,35.28-5-0.25-1.56Zm289.94-521c-8.5,1-17.16-1.63-25.55,1.64C985.43,322.66,994,323.95,1002.38,319.75ZM733.58,833.63c-5.59.88-9.71-4.44-14.94-3.14-1.61.4-4.06-2.81-4.56,0.44-0.35,2.3.39,5.5,4.5,4.81C723.57,834.9,728.58,834.32,733.58,833.63ZM637.28,140c2.44,3.5,2.19,9,7.67,9.39-2.73-3.73,3.39-4.64,2.48-7.8C645.34,134.32,640.71,141.5,637.28,140ZM444.74,1248.47c5.44,1.53,10.45,3,15.46,4.34,1.53,0.43,3.12.46,3.56-1.44a2.52,2.52,0,0,0-2.36-3.14C456,1247.58,450.65,1243.88,444.74,1248.47ZM976.55,1207c0.06-7.28,1.63-14.79-.94-22C973.62,1192.35,975.51,1199.59,976.55,1207ZM733.11,272.79c-0.14-3.08-2.68-3.41-4.95-4-4-1-5.81,2-6.14,4.73-0.31,2.55,3,3.29,5.13,3.66C730.32,277.76,732,275.62,733.11,272.79Zm196.72,952.48c0.37-4-1.33-4.81-3.79-4.52-2.22.26-5.64-.66-5.84,2.5-0.17,2.76,2.56,4.83,5.25,5.3A3.62,3.62,0,0,0,929.82,1225.27Zm-203-284.55c-4.21,1.18-9-1.46-14,2C718.54,946.07,722.82,944.7,726.82,940.71ZM541.78,1269c-1.75,6.11-2.67,12.23,0,18.21V1269ZM843.59,606c6.39,1.58,10,.65,11.45-4.61,0.6-2.18-.46-4-2.4-4.07C847,596.92,846.85,602.2,843.59,606ZM730.23,931.13c-6-2.89-10.7.4-15.57,1.64C719.76,934.14,724.75,934.36,730.23,931.13ZM607.8,302.71c11.4-4,13.84-8.17,11.18-19.43C618,291.9,613.93,296.88,607.8,302.71Zm21.39-15.4-12.63,18.77C625.2,303.5,627.9,297.5,629.18,287.31Zm25.58-20.13c5.38,1.81,10.52,2.21,13.69,4.92,5,4.28,2.33-1.64,3.29-2.24,3.5-2.2-.59-2.53-1.3-2.56C665.66,267.07,660.87,267.17,654.76,267.17ZM679.18,288l14.68,9C690.1,288.11,689.89,288,679.18,288Zm127,991.85-1.75-1.53A126.11,126.11,0,0,0,786,1295l1.57,1.66ZM473.35,267.23c7.67-2.9,11.79-8,9.58-16.74C481.51,257.11,476.82,261.71,473.35,267.23Zm80.63,1039c-1.41,6.11-6.39,9.87-11,16.06C552,1319,555.3,1314.18,554,1306.27ZM535,305.67l0.84-.08V289.48l-0.84.06v16.13Zm78,982.52c-1.92,5.49-3.49,11,1.36,15.8ZM591.11,280.32L580.42,295C586.85,292.55,592.55,289.63,591.11,280.32Zm171-12.08,1.7,0.69,9.12-22.44-1.74-.71ZM565.35,291.8c8.69-2.45,12-6.94,12.27-16.31Zm-10.44,996.83h1.2V1272.5l-1.2,0v16.11Zm-29-7.23,0.85-.06v-16.08l-0.85.07v16.07Zm-14.55-3.67,0.85-.07v-16.07l-0.85.07v16.07ZM498,1257.92a21.18,21.18,0,0,0,0,16.11v-16.11Zm154.25,109.63a80,80,0,0,1-8.31-2.88c-5.07-2.37-4.72,2-3.55,3.6C643.94,1373,648.36,1367,652.26,1367.56ZM698.55,364.19l0.2,2L719.52,363l-0.24-1.55ZM550.91,294.42l-1.13,0v14.89l1.13-.08V294.42ZM564,312.95l1-.17V298.11l-1,.13v14.71Zm-43.69-11h1.15V287.15l-1.15,0V302Zm84.77-17c-2.39,4.93-6.58,8.4-10.54,13.87C603,296.38,605.76,291.78,605,284.94Zm-73,1017.37c-1.87,5.06-6.52,8.27-9.81,13.54C530.42,1313.82,533,1309.25,532.06,1302.32ZM480.27,269.26c6.54-2.12,11.14-5.78,10.48-15.41C487,260.23,484.07,265,480.27,269.26Zm39.35-8c-4.34,5.74-6.44,11.21-12.5,16.26C516.9,275,519.35,269.79,519.62,261.28Zm-13.94,37.09,1.16,0V283.47l-1.16.07v14.83Zm-14.51-3.66,1.2,0V279.8l-1.2.08v14.84Zm15.71,1018.4c8.24-3.31,12.17-7.35,11-14.92C515.73,1303.47,511.21,1307.11,506.88,1313.11Zm-7.86-2.42c9.74-2.18,12.12-7,11.93-13.72A81.27,81.27,0,0,1,499,1310.69Zm-99.08-74.5c4,1.32,7.55,4.66,12.15,3a2.49,2.49,0,0,0,.54-2.19C408.83,1233.33,404.29,1235.93,399.94,1236.19Zm460.52-416.9c-4,2.13-8.77,1.43-14.41,3.68C853.2,825.84,857.4,824.4,860.46,819.29ZM493.91,273.49c8.46-2.14,11.09-7.12,11.42-15.62Zm-54.77,30.64c7.35-1.8,9-6.89,4.85-14.19C442.4,294.61,445.74,300.84,439.13,304.13ZM591,1314.64L578.9,1332.2C586.57,1328.28,591,1324.4,591,1314.64Zm-17.64,14c7.25-2.24,11-6.81,10.11-16.44A104.64,104.64,0,0,1,573.35,1328.62Zm2.64-15.14a131.51,131.51,0,0,1-12.61,14.75C572.34,1325.15,576.42,1321.07,576,1313.48ZM559,1325c5.72-2.68,11.22-5.63,9.79-15.15A122.55,122.55,0,0,1,559,1325Zm-30.18-7c9.23-2.13,10.72-7.88,10.88-14.5C537.7,1308.81,533.34,1312.48,528.85,1318Zm68.91-1-10.68,16.29C594.68,1330,598.24,1325.83,597.76,1317ZM623.6,308.11c8.06-3.57,11.56-8.2,10.59-15.62C631.88,297.87,627.52,301.82,623.6,308.11ZM427.11,204.84c-5.55-.06-10.26-3-15.86-0.27C416.63,208.13,421.47,207.35,427.11,204.84ZM546.8,1305.92c-2,5.4-7.05,8.67-10.87,14.17C544.2,1318,546.62,1312.79,546.8,1305.92Z" transform="translate(-303.46 -57.68)"/><path class="cls-1" d="M657.85,808c-0.22,7.89-8.08,16.36-14.7,15.83-5.77-.46-11.41-7.94-11-14.58,0.49-7.85,7.51-15.5,14.08-15.34C652.1,794.08,658,801.29,657.85,808ZM646,805.6c-0.29-2.19.32-6.3-3.41-5.58-5.26,1-5.65,6.27-6.12,10.69-0.25,2.43,1,6,3.13,5.53C644.65,815.2,646.23,810.86,646,805.6Z" transform="translate(-303.46 -57.68)"/><path class="cls-1" d="M654.58,679.12c0,8.68-5.59,15.4-13.1,15.61-6.8.19-11.73-5.32-11.84-13.23-0.11-8.12,6.22-15.57,13.29-15.65S654.53,671.06,654.58,679.12Zm-20.19,1.76c0.19,2.76-.6,6.83,3,6.41,4.85-.55,5.8-5.51,6.49-9.58,0.46-2.71-.73-6.41-3.62-6.16C635,672,634.74,676.83,634.39,680.88Z" transform="translate(-303.46 -57.68)"/><path class="cls-1" d="M999.2,1108.93c0.23-5.67,3.24-10.31,9.48-10.7s9.28,4.79,9.19,10.19c-0.09,5.74-3.38,11-9.68,11.31C1002.15,1120,999.25,1115.55,999.2,1108.93Z" transform="translate(-303.46 -57.68)"/><path class="cls-1" d="M1004.89,921.32c6.35,0.69,9.46,5.16,9.5,10.39,0,5.64-3.25,11-9.59,11.29-5.32.25-8.88-3.4-9.18-9.13C995.27,927.17,998.61,923.13,1004.89,921.32Z" transform="translate(-303.46 -57.68)"/><path class="cls-1" d="M988.31,579.4c1.1-5.21,3-11.13,10.11-11,5.9,0.1,9.25,4.74,9,10.44-0.29,5.9-3.73,10.7-10.08,10.69C991.94,589.51,988.6,585.84,988.31,579.4Z" transform="translate(-303.46 -57.68)"/><path class="cls-1" d="M1097.58,615.44c-10.72-9.24-22-17-37.09-16.09C1074.28,595.43,1087.7,601.12,1097.58,615.44Z" transform="translate(-303.46 -57.68)"/><path class="cls-1" d="M382.68,1213.09c17.46-6.26,24.57-5.1,31.22,5.11l-0.66.54c-5.37-3.35-10.15-8.86-17.41-6.45-4.5,1.5-8.81,1-13.25.56Z" transform="translate(-303.46 -57.68)"/><path class="cls-1" d="M1130.84,1273.16c17.77-6.38,23.85-5.1,33,6.92l-0.64.64c-2.6.47-3.48-1.76-5-3.09-4.83-4.22-9.68-7.49-16.84-4.67-3.06,1.2-7,.05-10.61,0Z" transform="translate(-303.46 -57.68)"/></svg>